<?xml version="1.0" encoding="utf-8"?>
<svg xmlns="http://www.w3.org/2000/svg" xmlns:xlink="http://www.w3.org/1999/xlink" width="600" height="400" viewBox="0 0 2400 1600">
<defs>
  <clipPath id="clip590">
    <rect x="0" y="0" width="2400" height="1600"/>
  </clipPath>
</defs>
<path clip-path="url(#clip590)" d="
M0 1600 L2400 1600 L2400 0 L0 0  Z
  " fill="#ffffff" fill-rule="evenodd" fill-opacity="1"/>
<defs>
  <clipPath id="clip591">
    <rect x="480" y="0" width="1681" height="1600"/>
  </clipPath>
</defs>
<path clip-path="url(#clip590)" d="
M110.881 1486.45 L2352.76 1486.45 L2352.76 47.2441 L110.881 47.2441  Z
  " fill="#ffffff" fill-rule="evenodd" fill-opacity="1"/>
<defs>
  <clipPath id="clip592">
    <rect x="110" y="47" width="2243" height="1440"/>
  </clipPath>
</defs>
<polyline clip-path="url(#clip590)" style="stroke:#000000; stroke-linecap:round; stroke-linejoin:round; stroke-width:4; stroke-opacity:1; fill:none" points="
  110.881,1486.45 2352.76,1486.45 
  "/>
<polyline clip-path="url(#clip590)" style="stroke:#000000; stroke-linecap:round; stroke-linejoin:round; stroke-width:4; stroke-opacity:1; fill:none" points="
  174.33,1486.45 174.33,1467.55 
  "/>
<polyline clip-path="url(#clip590)" style="stroke:#000000; stroke-linecap:round; stroke-linejoin:round; stroke-width:4; stroke-opacity:1; fill:none" points="
  703.074,1486.45 703.074,1467.55 
  "/>
<polyline clip-path="url(#clip590)" style="stroke:#000000; stroke-linecap:round; stroke-linejoin:round; stroke-width:4; stroke-opacity:1; fill:none" points="
  1231.82,1486.45 1231.82,1467.55 
  "/>
<polyline clip-path="url(#clip590)" style="stroke:#000000; stroke-linecap:round; stroke-linejoin:round; stroke-width:4; stroke-opacity:1; fill:none" points="
  1760.56,1486.45 1760.56,1467.55 
  "/>
<polyline clip-path="url(#clip590)" style="stroke:#000000; stroke-linecap:round; stroke-linejoin:round; stroke-width:4; stroke-opacity:1; fill:none" points="
  2289.31,1486.45 2289.31,1467.55 
  "/>
<path clip-path="url(#clip590)" d="M136.634 1517.37 Q133.023 1517.37 131.194 1520.93 Q129.388 1524.47 129.388 1531.6 Q129.388 1538.71 131.194 1542.27 Q133.023 1545.82 136.634 1545.82 Q140.268 1545.82 142.073 1542.27 Q143.902 1538.71 143.902 1531.6 Q143.902 1524.47 142.073 1520.93 Q140.268 1517.37 136.634 1517.37 M136.634 1513.66 Q142.444 1513.66 145.499 1518.27 Q148.578 1522.85 148.578 1531.6 Q148.578 1540.33 145.499 1544.94 Q142.444 1549.52 136.634 1549.52 Q130.823 1549.52 127.745 1544.94 Q124.689 1540.33 124.689 1531.6 Q124.689 1522.85 127.745 1518.27 Q130.823 1513.66 136.634 1513.66 Z" fill="#000000" fill-rule="evenodd" fill-opacity="1" /><path clip-path="url(#clip590)" d="M156.796 1542.97 L161.68 1542.97 L161.68 1548.85 L156.796 1548.85 L156.796 1542.97 Z" fill="#000000" fill-rule="evenodd" fill-opacity="1" /><path clip-path="url(#clip590)" d="M181.865 1517.37 Q178.254 1517.37 176.425 1520.93 Q174.62 1524.47 174.62 1531.6 Q174.62 1538.71 176.425 1542.27 Q178.254 1545.82 181.865 1545.82 Q185.499 1545.82 187.305 1542.27 Q189.133 1538.71 189.133 1531.6 Q189.133 1524.47 187.305 1520.93 Q185.499 1517.37 181.865 1517.37 M181.865 1513.66 Q187.675 1513.66 190.731 1518.27 Q193.809 1522.85 193.809 1531.6 Q193.809 1540.33 190.731 1544.94 Q187.675 1549.52 181.865 1549.52 Q176.055 1549.52 172.976 1544.94 Q169.92 1540.33 169.92 1531.6 Q169.92 1522.85 172.976 1518.27 Q176.055 1513.66 181.865 1513.66 Z" fill="#000000" fill-rule="evenodd" fill-opacity="1" /><path clip-path="url(#clip590)" d="M212.027 1517.37 Q208.416 1517.37 206.587 1520.93 Q204.781 1524.47 204.781 1531.6 Q204.781 1538.71 206.587 1542.27 Q208.416 1545.82 212.027 1545.82 Q215.661 1545.82 217.467 1542.27 Q219.295 1538.71 219.295 1531.6 Q219.295 1524.47 217.467 1520.93 Q215.661 1517.37 212.027 1517.37 M212.027 1513.66 Q217.837 1513.66 220.892 1518.27 Q223.971 1522.85 223.971 1531.6 Q223.971 1540.33 220.892 1544.94 Q217.837 1549.52 212.027 1549.52 Q206.217 1549.52 203.138 1544.94 Q200.082 1540.33 200.082 1531.6 Q200.082 1522.85 203.138 1518.27 Q206.217 1513.66 212.027 1513.66 Z" fill="#000000" fill-rule="evenodd" fill-opacity="1" /><path clip-path="url(#clip590)" d="M665.875 1517.37 Q662.264 1517.37 660.436 1520.93 Q658.63 1524.47 658.63 1531.6 Q658.63 1538.71 660.436 1542.27 Q662.264 1545.82 665.875 1545.82 Q669.51 1545.82 671.315 1542.27 Q673.144 1538.71 673.144 1531.6 Q673.144 1524.47 671.315 1520.93 Q669.51 1517.37 665.875 1517.37 M665.875 1513.66 Q671.686 1513.66 674.741 1518.27 Q677.82 1522.85 677.82 1531.6 Q677.82 1540.33 674.741 1544.94 Q671.686 1549.52 665.875 1549.52 Q660.065 1549.52 656.987 1544.94 Q653.931 1540.33 653.931 1531.6 Q653.931 1522.85 656.987 1518.27 Q660.065 1513.66 665.875 1513.66 Z" fill="#000000" fill-rule="evenodd" fill-opacity="1" /><path clip-path="url(#clip590)" d="M686.037 1542.97 L690.922 1542.97 L690.922 1548.85 L686.037 1548.85 L686.037 1542.97 Z" fill="#000000" fill-rule="evenodd" fill-opacity="1" /><path clip-path="url(#clip590)" d="M705.134 1544.91 L721.454 1544.91 L721.454 1548.85 L699.509 1548.85 L699.509 1544.91 Q702.172 1542.16 706.755 1537.53 Q711.361 1532.88 712.542 1531.53 Q714.787 1529.01 715.667 1527.27 Q716.57 1525.51 716.57 1523.82 Q716.57 1521.07 714.625 1519.33 Q712.704 1517.6 709.602 1517.6 Q707.403 1517.6 704.949 1518.36 Q702.519 1519.13 699.741 1520.68 L699.741 1515.95 Q702.565 1514.82 705.019 1514.24 Q707.472 1513.66 709.509 1513.66 Q714.88 1513.66 718.074 1516.35 Q721.269 1519.03 721.269 1523.52 Q721.269 1525.65 720.458 1527.57 Q719.671 1529.47 717.565 1532.07 Q716.986 1532.74 713.884 1535.95 Q710.783 1539.15 705.134 1544.91 Z" fill="#000000" fill-rule="evenodd" fill-opacity="1" /><path clip-path="url(#clip590)" d="M731.315 1514.29 L749.671 1514.29 L749.671 1518.22 L735.597 1518.22 L735.597 1526.7 Q736.616 1526.35 737.634 1526.19 Q738.653 1526 739.671 1526 Q745.458 1526 748.838 1529.17 Q752.218 1532.34 752.218 1537.76 Q752.218 1543.34 748.745 1546.44 Q745.273 1549.52 738.954 1549.52 Q736.778 1549.52 734.509 1549.15 Q732.264 1548.78 729.857 1548.04 L729.857 1543.34 Q731.94 1544.47 734.162 1545.03 Q736.384 1545.58 738.861 1545.58 Q742.866 1545.58 745.204 1543.48 Q747.542 1541.37 747.542 1537.76 Q747.542 1534.15 745.204 1532.04 Q742.866 1529.94 738.861 1529.94 Q736.986 1529.94 735.111 1530.35 Q733.259 1530.77 731.315 1531.65 L731.315 1514.29 Z" fill="#000000" fill-rule="evenodd" fill-opacity="1" /><path clip-path="url(#clip590)" d="M1194.12 1517.37 Q1190.51 1517.37 1188.68 1520.93 Q1186.88 1524.47 1186.88 1531.6 Q1186.88 1538.71 1188.68 1542.27 Q1190.51 1545.82 1194.12 1545.82 Q1197.76 1545.82 1199.56 1542.27 Q1201.39 1538.71 1201.39 1531.6 Q1201.39 1524.47 1199.56 1520.93 Q1197.76 1517.37 1194.12 1517.37 M1194.12 1513.66 Q1199.93 1513.66 1202.99 1518.27 Q1206.07 1522.85 1206.07 1531.6 Q1206.07 1540.33 1202.99 1544.94 Q1199.93 1549.52 1194.12 1549.52 Q1188.31 1549.52 1185.23 1544.94 Q1182.18 1540.33 1182.18 1531.6 Q1182.18 1522.85 1185.23 1518.27 Q1188.31 1513.66 1194.12 1513.66 Z" fill="#000000" fill-rule="evenodd" fill-opacity="1" /><path clip-path="url(#clip590)" d="M1214.28 1542.97 L1219.17 1542.97 L1219.17 1548.85 L1214.28 1548.85 L1214.28 1542.97 Z" fill="#000000" fill-rule="evenodd" fill-opacity="1" /><path clip-path="url(#clip590)" d="M1229.4 1514.29 L1247.76 1514.29 L1247.76 1518.22 L1233.68 1518.22 L1233.68 1526.7 Q1234.7 1526.35 1235.72 1526.19 Q1236.74 1526 1237.76 1526 Q1243.54 1526 1246.92 1529.17 Q1250.3 1532.34 1250.3 1537.76 Q1250.3 1543.34 1246.83 1546.44 Q1243.36 1549.52 1237.04 1549.52 Q1234.86 1549.52 1232.59 1549.15 Q1230.35 1548.78 1227.94 1548.04 L1227.94 1543.34 Q1230.02 1544.47 1232.25 1545.03 Q1234.47 1545.58 1236.95 1545.58 Q1240.95 1545.58 1243.29 1543.48 Q1245.63 1541.37 1245.63 1537.76 Q1245.63 1534.15 1243.29 1532.04 Q1240.95 1529.94 1236.95 1529.94 Q1235.07 1529.94 1233.2 1530.35 Q1231.34 1530.77 1229.4 1531.65 L1229.4 1514.29 Z" fill="#000000" fill-rule="evenodd" fill-opacity="1" /><path clip-path="url(#clip590)" d="M1269.51 1517.37 Q1265.9 1517.37 1264.08 1520.93 Q1262.27 1524.47 1262.27 1531.6 Q1262.27 1538.71 1264.08 1542.27 Q1265.9 1545.82 1269.51 1545.82 Q1273.15 1545.82 1274.95 1542.27 Q1276.78 1538.71 1276.78 1531.6 Q1276.78 1524.47 1274.95 1520.93 Q1273.15 1517.37 1269.51 1517.37 M1269.51 1513.66 Q1275.33 1513.66 1278.38 1518.27 Q1281.46 1522.85 1281.46 1531.6 Q1281.46 1540.33 1278.38 1544.94 Q1275.33 1549.52 1269.51 1549.52 Q1263.7 1549.52 1260.63 1544.94 Q1257.57 1540.33 1257.57 1531.6 Q1257.57 1522.85 1260.63 1518.27 Q1263.7 1513.66 1269.51 1513.66 Z" fill="#000000" fill-rule="evenodd" fill-opacity="1" /><path clip-path="url(#clip590)" d="M1723.36 1517.37 Q1719.75 1517.37 1717.92 1520.93 Q1716.12 1524.47 1716.12 1531.6 Q1716.12 1538.71 1717.92 1542.27 Q1719.75 1545.82 1723.36 1545.82 Q1727 1545.82 1728.8 1542.27 Q1730.63 1538.71 1730.63 1531.6 Q1730.63 1524.47 1728.8 1520.93 Q1727 1517.37 1723.36 1517.37 M1723.36 1513.66 Q1729.17 1513.66 1732.23 1518.27 Q1735.31 1522.85 1735.31 1531.6 Q1735.31 1540.33 1732.23 1544.94 Q1729.17 1549.52 1723.36 1549.52 Q1717.55 1549.52 1714.47 1544.94 Q1711.42 1540.33 1711.42 1531.6 Q1711.42 1522.85 1714.47 1518.27 Q1717.55 1513.66 1723.36 1513.66 Z" fill="#000000" fill-rule="evenodd" fill-opacity="1" /><path clip-path="url(#clip590)" d="M1743.53 1542.97 L1748.41 1542.97 L1748.41 1548.85 L1743.53 1548.85 L1743.53 1542.97 Z" fill="#000000" fill-rule="evenodd" fill-opacity="1" /><path clip-path="url(#clip590)" d="M1757.41 1514.29 L1779.64 1514.29 L1779.64 1516.28 L1767.09 1548.85 L1762.21 1548.85 L1774.01 1518.22 L1757.41 1518.22 L1757.41 1514.29 Z" fill="#000000" fill-rule="evenodd" fill-opacity="1" /><path clip-path="url(#clip590)" d="M1788.8 1514.29 L1807.16 1514.29 L1807.16 1518.22 L1793.09 1518.22 L1793.09 1526.7 Q1794.1 1526.35 1795.12 1526.19 Q1796.14 1526 1797.16 1526 Q1802.95 1526 1806.33 1529.17 Q1809.71 1532.34 1809.71 1537.76 Q1809.71 1543.34 1806.23 1546.44 Q1802.76 1549.52 1796.44 1549.52 Q1794.27 1549.52 1792 1549.15 Q1789.75 1548.78 1787.34 1548.04 L1787.34 1543.34 Q1789.43 1544.47 1791.65 1545.03 Q1793.87 1545.58 1796.35 1545.58 Q1800.35 1545.58 1802.69 1543.48 Q1805.03 1541.37 1805.03 1537.76 Q1805.03 1534.15 1802.69 1532.04 Q1800.35 1529.94 1796.35 1529.94 Q1794.47 1529.94 1792.6 1530.35 Q1790.75 1530.77 1788.8 1531.65 L1788.8 1514.29 Z" fill="#000000" fill-rule="evenodd" fill-opacity="1" /><path clip-path="url(#clip590)" d="M2241.38 1544.91 L2249.02 1544.91 L2249.02 1518.55 L2240.71 1520.21 L2240.71 1515.95 L2248.97 1514.29 L2253.65 1514.29 L2253.65 1544.91 L2261.29 1544.91 L2261.29 1548.85 L2241.38 1548.85 L2241.38 1544.91 Z" fill="#000000" fill-rule="evenodd" fill-opacity="1" /><path clip-path="url(#clip590)" d="M2270.73 1542.97 L2275.61 1542.97 L2275.61 1548.85 L2270.73 1548.85 L2270.73 1542.97 Z" fill="#000000" fill-rule="evenodd" fill-opacity="1" /><path clip-path="url(#clip590)" d="M2295.8 1517.37 Q2292.19 1517.37 2290.36 1520.93 Q2288.55 1524.47 2288.55 1531.6 Q2288.55 1538.71 2290.36 1542.27 Q2292.19 1545.82 2295.8 1545.82 Q2299.43 1545.82 2301.24 1542.27 Q2303.07 1538.71 2303.07 1531.6 Q2303.07 1524.47 2301.24 1520.93 Q2299.43 1517.37 2295.8 1517.37 M2295.8 1513.66 Q2301.61 1513.66 2304.67 1518.27 Q2307.74 1522.85 2307.74 1531.6 Q2307.74 1540.33 2304.67 1544.94 Q2301.61 1549.52 2295.8 1549.52 Q2289.99 1549.52 2286.91 1544.94 Q2283.86 1540.33 2283.86 1531.6 Q2283.86 1522.85 2286.91 1518.27 Q2289.99 1513.66 2295.8 1513.66 Z" fill="#000000" fill-rule="evenodd" fill-opacity="1" /><path clip-path="url(#clip590)" d="M2325.96 1517.37 Q2322.35 1517.37 2320.52 1520.93 Q2318.72 1524.47 2318.72 1531.6 Q2318.72 1538.71 2320.52 1542.27 Q2322.35 1545.82 2325.96 1545.82 Q2329.6 1545.82 2331.4 1542.27 Q2333.23 1538.71 2333.23 1531.6 Q2333.23 1524.47 2331.4 1520.93 Q2329.6 1517.37 2325.96 1517.37 M2325.96 1513.66 Q2331.77 1513.66 2334.83 1518.27 Q2337.91 1522.85 2337.91 1531.6 Q2337.91 1540.33 2334.83 1544.94 Q2331.77 1549.52 2325.96 1549.52 Q2320.15 1549.52 2317.07 1544.94 Q2314.02 1540.33 2314.02 1531.6 Q2314.02 1522.85 2317.07 1518.27 Q2320.15 1513.66 2325.96 1513.66 Z" fill="#000000" fill-rule="evenodd" fill-opacity="1" /><polyline clip-path="url(#clip590)" style="stroke:#000000; stroke-linecap:round; stroke-linejoin:round; stroke-width:4; stroke-opacity:1; fill:none" points="
  110.881,1486.45 110.881,47.2441 
  "/>
<polyline clip-path="url(#clip590)" style="stroke:#000000; stroke-linecap:round; stroke-linejoin:round; stroke-width:4; stroke-opacity:1; fill:none" points="
  110.881,1445.72 129.779,1445.72 
  "/>
<polyline clip-path="url(#clip590)" style="stroke:#000000; stroke-linecap:round; stroke-linejoin:round; stroke-width:4; stroke-opacity:1; fill:none" points="
  110.881,993.136 129.779,993.136 
  "/>
<polyline clip-path="url(#clip590)" style="stroke:#000000; stroke-linecap:round; stroke-linejoin:round; stroke-width:4; stroke-opacity:1; fill:none" points="
  110.881,540.556 129.779,540.556 
  "/>
<polyline clip-path="url(#clip590)" style="stroke:#000000; stroke-linecap:round; stroke-linejoin:round; stroke-width:4; stroke-opacity:1; fill:none" points="
  110.881,87.9763 129.779,87.9763 
  "/>
<path clip-path="url(#clip590)" d="M62.9365 1431.51 Q59.3254 1431.51 57.4967 1435.08 Q55.6912 1438.62 55.6912 1445.75 Q55.6912 1452.86 57.4967 1456.42 Q59.3254 1459.96 62.9365 1459.96 Q66.5707 1459.96 68.3763 1456.42 Q70.205 1452.86 70.205 1445.75 Q70.205 1438.62 68.3763 1435.08 Q66.5707 1431.51 62.9365 1431.51 M62.9365 1427.81 Q68.7467 1427.81 71.8022 1432.42 Q74.8809 1437 74.8809 1445.75 Q74.8809 1454.48 71.8022 1459.08 Q68.7467 1463.67 62.9365 1463.67 Q57.1264 1463.67 54.0477 1459.08 Q50.9921 1454.48 50.9921 1445.75 Q50.9921 1437 54.0477 1432.42 Q57.1264 1427.81 62.9365 1427.81 Z" fill="#000000" fill-rule="evenodd" fill-opacity="1" /><path clip-path="url(#clip590)" d="M54.9736 1006.48 L62.6124 1006.48 L62.6124 980.115 L54.3023 981.782 L54.3023 977.523 L62.5661 975.856 L67.242 975.856 L67.242 1006.48 L74.8809 1006.48 L74.8809 1010.42 L54.9736 1010.42 L54.9736 1006.48 Z" fill="#000000" fill-rule="evenodd" fill-opacity="1" /><path clip-path="url(#clip590)" d="M58.5615 553.901 L74.8809 553.901 L74.8809 557.836 L52.9366 557.836 L52.9366 553.901 Q55.5986 551.146 60.1819 546.517 Q64.7883 541.864 65.9689 540.521 Q68.2143 537.998 69.0939 536.262 Q69.9967 534.503 69.9967 532.813 Q69.9967 530.058 68.0522 528.322 Q66.1309 526.586 63.0291 526.586 Q60.83 526.586 58.3763 527.35 Q55.9458 528.114 53.168 529.665 L53.168 524.943 Q55.9921 523.808 58.4458 523.23 Q60.8995 522.651 62.9365 522.651 Q68.3068 522.651 71.5013 525.336 Q74.6957 528.021 74.6957 532.512 Q74.6957 534.642 73.8855 536.563 Q73.0985 538.461 70.992 541.054 Q70.4133 541.725 67.3115 544.943 Q64.2096 548.137 58.5615 553.901 Z" fill="#000000" fill-rule="evenodd" fill-opacity="1" /><path clip-path="url(#clip590)" d="M67.7513 86.6221 Q71.1078 87.3397 72.9827 89.6082 Q74.8809 91.8767 74.8809 95.21 Q74.8809 100.326 71.3624 103.127 Q67.8439 105.928 61.3624 105.928 Q59.1865 105.928 56.8717 105.488 Q54.5801 105.071 52.1264 104.215 L52.1264 99.7008 Q54.0708 100.835 56.3856 101.414 Q58.7004 101.992 61.2236 101.992 Q65.6217 101.992 67.9133 100.256 Q70.2281 98.5202 70.2281 95.21 Q70.2281 92.1545 68.0754 90.4415 Q65.9457 88.7054 62.1263 88.7054 L58.0986 88.7054 L58.0986 84.8629 L62.3115 84.8629 Q65.7606 84.8629 67.5893 83.4971 Q69.418 82.1083 69.418 79.5157 Q69.418 76.8537 67.5198 75.4416 Q65.6448 74.0064 62.1263 74.0064 Q60.205 74.0064 58.006 74.4231 Q55.8069 74.8398 53.168 75.7194 L53.168 71.5528 Q55.8301 70.812 58.1449 70.4416 Q60.4828 70.0713 62.543 70.0713 Q67.867 70.0713 70.9689 72.5018 Q74.0707 74.9092 74.0707 79.0296 Q74.0707 81.8999 72.4272 83.8907 Q70.7837 85.8582 67.7513 86.6221 Z" fill="#000000" fill-rule="evenodd" fill-opacity="1" /><polyline clip-path="url(#clip592)" style="stroke:#009af9; stroke-linecap:round; stroke-linejoin:round; stroke-width:8; stroke-opacity:1; fill:none" points="
  174.33,993.136 195.48,1044.73 216.63,1056.04 237.779,1051.52 258.929,1048.35 280.079,1059.21 301.229,1048.35 322.379,1055.14 343.528,1160.14 364.678,1166.47 
  385.828,1164.21 406.978,1162.85 428.127,1163.76 449.277,1155.16 470.427,1168.28 491.577,1158.78 512.726,1276.45 533.876,1275.55 555.026,1261.97 576.176,1256.08 
  597.325,1262.87 618.475,1273.28 639.625,1273.74 660.775,1265.14 681.925,1328.04 703.074,1330.31 724.224,1340.72 745.374,1337.55 766.524,1331.67 787.673,1334.38 
  808.823,1342.53 829.973,1337.55 851.123,1388.24 872.272,1392.31 893.422,1385.07 914.572,1386.88 935.722,1393.22 956.871,1386.88 978.021,1384.62 999.171,1379.64 
  1020.32,1420.82 1041.47,1417.2 1062.62,1420.37 1083.77,1411.32 1104.92,1421.73 1126.07,1420.82 1147.22,1414.94 1168.37,1416.75 1189.52,1433.04 1210.67,1429.88 
  1231.82,1434.4 1252.97,1433.5 1274.12,1432.59 1295.27,1432.59 1316.42,1430.78 1337.57,1438.02 1358.72,1440.74 1379.87,1441.19 1401.02,1437.12 1422.17,1441.19 
  1443.32,1443.45 1464.47,1440.28 1485.62,1439.83 1506.77,1443.91 1527.92,1443 1549.06,1444.36 1570.21,1443.91 1591.36,1442.55 1612.51,1441.64 1633.66,1443.91 
  1654.81,1443 1675.96,1444.81 1697.11,1443.91 1718.26,1445.72 1739.41,1444.36 1760.56,1445.26 1781.71,1445.26 1802.86,1445.26 1824.01,1444.81 1845.16,1445.72 
  1866.31,1445.26 1887.46,1445.26 1908.61,1445.72 1929.76,1445.72 1950.91,1444.81 1972.06,1445.72 1993.21,1444.81 2014.36,1445.72 2035.51,1445.72 2056.66,1444.81 
  2077.81,1445.26 2098.96,1444.81 2120.11,1445.26 2141.26,1445.72 2162.41,1445.26 2183.56,1445.72 2204.71,1445.72 2225.86,1445.72 2247.01,1445.72 2268.16,1445.26 
  2289.31,1445.72 
  "/>
<polyline clip-path="url(#clip592)" style="stroke:#e26f46; stroke-linecap:round; stroke-linejoin:round; stroke-width:8; stroke-opacity:1; fill:none" points="
  174.33,87.9763 195.48,88.1799 216.63,88.7907 237.779,89.808 258.929,91.2309 280.079,93.0583 301.229,95.2883 322.379,97.9191 343.528,100.948 364.678,104.373 
  385.828,108.19 406.978,112.397 428.127,116.989 449.277,121.962 470.427,127.313 491.577,133.035 512.726,139.125 533.876,145.577 555.026,152.385 576.176,159.543 
  597.325,167.045 618.475,174.885 639.625,183.055 660.775,191.549 681.925,200.36 703.074,209.48 724.224,218.901 745.374,228.616 766.524,238.615 787.673,248.892 
  808.823,259.437 829.973,270.242 851.123,281.298 872.272,292.596 893.422,304.127 914.572,315.881 935.722,327.85 956.871,340.024 978.021,352.393 999.171,364.949 
  1020.32,377.68 1041.47,390.578 1062.62,403.633 1083.77,416.835 1104.92,430.175 1126.07,443.642 1147.22,457.228 1168.37,470.921 1189.52,484.714 1210.67,498.595 
  1231.82,512.556 1252.97,526.587 1274.12,540.678 1295.27,554.821 1316.42,569.006 1337.57,583.223 1358.72,597.465 1379.87,611.722 1401.02,625.985 1422.17,640.245 
  1443.32,654.495 1464.47,668.727 1485.62,682.931 1506.77,697.1 1527.92,711.226 1549.06,725.301 1570.21,739.319 1591.36,753.272 1612.51,767.153 1633.66,780.955 
  1654.81,794.672 1675.96,808.297 1697.11,821.824 1718.26,835.247 1739.41,848.561 1760.56,861.759 1781.71,874.837 1802.86,887.79 1824.01,900.612 1845.16,913.299 
  1866.31,925.847 1887.46,938.251 1908.61,950.508 1929.76,962.614 1950.91,974.566 1972.06,986.359 1993.21,997.992 2014.36,1009.46 2035.51,1020.76 2056.66,1031.9 
  2077.81,1042.86 2098.96,1053.65 2120.11,1064.27 2141.26,1074.71 2162.41,1084.97 2183.56,1095.05 2204.71,1104.96 2225.86,1114.68 2247.01,1124.22 2268.16,1133.58 
  2289.31,1142.76 
  "/>
<path clip-path="url(#clip590)" d="
M1698.38 250.738 L2278.03 250.738 L2278.03 95.2176 L1698.38 95.2176  Z
  " fill="#ffffff" fill-rule="evenodd" fill-opacity="1"/>
<polyline clip-path="url(#clip590)" style="stroke:#000000; stroke-linecap:round; stroke-linejoin:round; stroke-width:4; stroke-opacity:1; fill:none" points="
  1698.38,250.738 2278.03,250.738 2278.03,95.2176 1698.38,95.2176 1698.38,250.738 
  "/>
<polyline clip-path="url(#clip590)" style="stroke:#009af9; stroke-linecap:round; stroke-linejoin:round; stroke-width:8; stroke-opacity:1; fill:none" points="
  1723.29,147.058 1872.75,147.058 
  "/>
<path clip-path="url(#clip590)" d="M1897.66 129.778 L1926.89 129.778 L1926.89 133.713 L1914.62 133.713 L1914.62 164.338 L1909.92 164.338 L1909.92 133.713 L1897.66 133.713 L1897.66 129.778 Z" fill="#000000" fill-rule="evenodd" fill-opacity="1" /><path clip-path="url(#clip590)" d="M1939.28 142.393 Q1938.56 141.977 1937.7 141.791 Q1936.87 141.583 1935.85 141.583 Q1932.24 141.583 1930.29 143.944 Q1928.37 146.282 1928.37 150.68 L1928.37 164.338 L1924.09 164.338 L1924.09 138.412 L1928.37 138.412 L1928.37 142.44 Q1929.72 140.078 1931.87 138.944 Q1934.02 137.787 1937.1 137.787 Q1937.54 137.787 1938.07 137.856 Q1938.6 137.903 1939.25 138.018 L1939.28 142.393 Z" fill="#000000" fill-rule="evenodd" fill-opacity="1" /><path clip-path="url(#clip590)" d="M1943.3 154.106 L1943.3 138.412 L1947.56 138.412 L1947.56 153.944 Q1947.56 157.625 1949 159.476 Q1950.43 161.305 1953.3 161.305 Q1956.75 161.305 1958.74 159.106 Q1960.76 156.907 1960.76 153.111 L1960.76 138.412 L1965.02 138.412 L1965.02 164.338 L1960.76 164.338 L1960.76 160.356 Q1959.21 162.717 1957.15 163.875 Q1955.11 165.009 1952.4 165.009 Q1947.93 165.009 1945.62 162.231 Q1943.3 159.453 1943.3 154.106 M1954.02 137.787 L1954.02 137.787 Z" fill="#000000" fill-rule="evenodd" fill-opacity="1" /><path clip-path="url(#clip590)" d="M1995.97 150.31 L1995.97 152.393 L1976.38 152.393 Q1976.66 156.791 1979.02 159.106 Q1981.41 161.398 1985.64 161.398 Q1988.1 161.398 1990.39 160.796 Q1992.7 160.194 1994.97 158.99 L1994.97 163.018 Q1992.68 163.99 1990.27 164.5 Q1987.86 165.009 1985.39 165.009 Q1979.18 165.009 1975.55 161.398 Q1971.94 157.787 1971.94 151.629 Q1971.94 145.264 1975.36 141.537 Q1978.81 137.787 1984.65 137.787 Q1989.88 137.787 1992.91 141.166 Q1995.97 144.523 1995.97 150.31 M1991.71 149.06 Q1991.66 145.565 1989.74 143.481 Q1987.84 141.398 1984.69 141.398 Q1981.13 141.398 1978.97 143.412 Q1976.85 145.426 1976.52 149.083 L1991.71 149.06 Z" fill="#000000" fill-rule="evenodd" fill-opacity="1" /><polyline clip-path="url(#clip590)" style="stroke:#e26f46; stroke-linecap:round; stroke-linejoin:round; stroke-width:8; stroke-opacity:1; fill:none" points="
  1723.29,198.898 1872.75,198.898 
  "/>
<path clip-path="url(#clip590)" d="M1925.53 184.28 L1925.53 189.21 Q1923.17 187.011 1920.48 185.923 Q1917.82 184.835 1914.81 184.835 Q1908.88 184.835 1905.73 188.469 Q1902.59 192.08 1902.59 198.932 Q1902.59 205.761 1905.73 209.395 Q1908.88 213.006 1914.81 213.006 Q1917.82 213.006 1920.48 211.918 Q1923.17 210.83 1925.53 208.631 L1925.53 213.516 Q1923.07 215.182 1920.32 216.016 Q1917.59 216.849 1914.53 216.849 Q1906.68 216.849 1902.17 212.057 Q1897.66 207.242 1897.66 198.932 Q1897.66 190.599 1902.17 185.807 Q1906.68 180.993 1914.53 180.993 Q1917.63 180.993 1920.36 181.826 Q1923.12 182.636 1925.53 184.28 Z" fill="#000000" fill-rule="evenodd" fill-opacity="1" /><path clip-path="url(#clip590)" d="M1954.11 200.529 L1954.11 216.178 L1949.85 216.178 L1949.85 200.668 Q1949.85 196.988 1948.42 195.159 Q1946.98 193.33 1944.11 193.33 Q1940.66 193.33 1938.67 195.53 Q1936.68 197.729 1936.68 201.525 L1936.68 216.178 L1932.4 216.178 L1932.4 180.159 L1936.68 180.159 L1936.68 194.28 Q1938.21 191.942 1940.27 190.784 Q1942.35 189.627 1945.06 189.627 Q1949.53 189.627 1951.82 192.405 Q1954.11 195.159 1954.11 200.529 Z" fill="#000000" fill-rule="evenodd" fill-opacity="1" /><path clip-path="url(#clip590)" d="M1984.79 202.15 L1984.79 204.233 L1965.2 204.233 Q1965.48 208.631 1967.84 210.946 Q1970.23 213.238 1974.46 213.238 Q1976.91 213.238 1979.21 212.636 Q1981.52 212.034 1983.79 210.83 L1983.79 214.858 Q1981.5 215.83 1979.09 216.34 Q1976.68 216.849 1974.21 216.849 Q1968 216.849 1964.37 213.238 Q1960.76 209.627 1960.76 203.469 Q1960.76 197.104 1964.18 193.377 Q1967.63 189.627 1973.47 189.627 Q1978.7 189.627 1981.73 193.006 Q1984.79 196.363 1984.79 202.15 M1980.53 200.9 Q1980.48 197.405 1978.56 195.321 Q1976.66 193.238 1973.51 193.238 Q1969.95 193.238 1967.79 195.252 Q1965.66 197.266 1965.34 200.923 L1980.53 200.9 Z" fill="#000000" fill-rule="evenodd" fill-opacity="1" /><path clip-path="url(#clip590)" d="M2006.8 194.233 Q2006.08 193.817 2005.22 193.631 Q2004.39 193.423 2003.37 193.423 Q1999.76 193.423 1997.82 195.784 Q1995.9 198.122 1995.9 202.52 L1995.9 216.178 L1991.61 216.178 L1991.61 190.252 L1995.9 190.252 L1995.9 194.28 Q1997.24 191.918 1999.39 190.784 Q2001.54 189.627 2004.62 189.627 Q2005.06 189.627 2005.6 189.696 Q2006.13 189.743 2006.78 189.858 L2006.8 194.233 Z" fill="#000000" fill-rule="evenodd" fill-opacity="1" /><path clip-path="url(#clip590)" d="M2031.98 200.529 L2031.98 216.178 L2027.72 216.178 L2027.72 200.668 Q2027.72 196.988 2026.29 195.159 Q2024.85 193.33 2021.98 193.33 Q2018.53 193.33 2016.54 195.53 Q2014.55 197.729 2014.55 201.525 L2014.55 216.178 L2010.27 216.178 L2010.27 190.252 L2014.55 190.252 L2014.55 194.28 Q2016.08 191.942 2018.14 190.784 Q2020.22 189.627 2022.93 189.627 Q2027.4 189.627 2029.69 192.405 Q2031.98 195.159 2031.98 200.529 Z" fill="#000000" fill-rule="evenodd" fill-opacity="1" /><path clip-path="url(#clip590)" d="M2050.53 193.238 Q2047.1 193.238 2045.11 195.923 Q2043.12 198.585 2043.12 203.238 Q2043.12 207.891 2045.09 210.576 Q2047.08 213.238 2050.53 213.238 Q2053.93 213.238 2055.92 210.553 Q2057.91 207.867 2057.91 203.238 Q2057.91 198.631 2055.92 195.946 Q2053.93 193.238 2050.53 193.238 M2050.53 189.627 Q2056.08 189.627 2059.25 193.238 Q2062.42 196.849 2062.42 203.238 Q2062.42 209.604 2059.25 213.238 Q2056.08 216.849 2050.53 216.849 Q2044.95 216.849 2041.78 213.238 Q2038.63 209.604 2038.63 203.238 Q2038.63 196.849 2041.78 193.238 Q2044.95 189.627 2050.53 189.627 Z" fill="#000000" fill-rule="evenodd" fill-opacity="1" /><path clip-path="url(#clip590)" d="M2066.43 190.252 L2070.94 190.252 L2079.04 212.011 L2087.15 190.252 L2091.66 190.252 L2081.94 216.178 L2076.15 216.178 L2066.43 190.252 Z" fill="#000000" fill-rule="evenodd" fill-opacity="1" /><path clip-path="url(#clip590)" d="M2131.22 203.238 Q2131.22 198.539 2129.28 195.877 Q2127.35 193.192 2123.97 193.192 Q2120.59 193.192 2118.65 195.877 Q2116.73 198.539 2116.73 203.238 Q2116.73 207.937 2118.65 210.622 Q2120.59 213.284 2123.97 213.284 Q2127.35 213.284 2129.28 210.622 Q2131.22 207.937 2131.22 203.238 M2116.73 194.187 Q2118.07 191.872 2120.11 190.761 Q2122.17 189.627 2125.02 189.627 Q2129.74 189.627 2132.68 193.377 Q2135.64 197.127 2135.64 203.238 Q2135.64 209.349 2132.68 213.099 Q2129.74 216.849 2125.02 216.849 Q2122.17 216.849 2120.11 215.738 Q2118.07 214.603 2116.73 212.289 L2116.73 216.178 L2112.45 216.178 L2112.45 180.159 L2116.73 180.159 L2116.73 194.187 Z" fill="#000000" fill-rule="evenodd" fill-opacity="1" /><path clip-path="url(#clip590)" d="M2152.75 193.238 Q2149.32 193.238 2147.33 195.923 Q2145.34 198.585 2145.34 203.238 Q2145.34 207.891 2147.31 210.576 Q2149.3 213.238 2152.75 213.238 Q2156.15 213.238 2158.14 210.553 Q2160.13 207.867 2160.13 203.238 Q2160.13 198.631 2158.14 195.946 Q2156.15 193.238 2152.75 193.238 M2152.75 189.627 Q2158.3 189.627 2161.47 193.238 Q2164.65 196.849 2164.65 203.238 Q2164.65 209.604 2161.47 213.238 Q2158.3 216.849 2152.75 216.849 Q2147.17 216.849 2144 213.238 Q2140.85 209.604 2140.85 203.238 Q2140.85 196.849 2144 193.238 Q2147.17 189.627 2152.75 189.627 Z" fill="#000000" fill-rule="evenodd" fill-opacity="1" /><path clip-path="url(#clip590)" d="M2171.27 205.946 L2171.27 190.252 L2175.52 190.252 L2175.52 205.784 Q2175.52 209.465 2176.96 211.316 Q2178.4 213.145 2181.27 213.145 Q2184.71 213.145 2186.71 210.946 Q2188.72 208.747 2188.72 204.951 L2188.72 190.252 L2192.98 190.252 L2192.98 216.178 L2188.72 216.178 L2188.72 212.196 Q2187.17 214.557 2185.11 215.715 Q2183.07 216.849 2180.36 216.849 Q2175.9 216.849 2173.58 214.071 Q2171.27 211.293 2171.27 205.946 M2181.98 189.627 L2181.98 189.627 Z" fill="#000000" fill-rule="evenodd" fill-opacity="1" /><path clip-path="url(#clip590)" d="M2223.3 200.529 L2223.3 216.178 L2219.04 216.178 L2219.04 200.668 Q2219.04 196.988 2217.61 195.159 Q2216.17 193.33 2213.3 193.33 Q2209.85 193.33 2207.86 195.53 Q2205.87 197.729 2205.87 201.525 L2205.87 216.178 L2201.59 216.178 L2201.59 190.252 L2205.87 190.252 L2205.87 194.28 Q2207.4 191.942 2209.46 190.784 Q2211.54 189.627 2214.25 189.627 Q2218.72 189.627 2221.01 192.405 Q2223.3 195.159 2223.3 200.529 Z" fill="#000000" fill-rule="evenodd" fill-opacity="1" /><path clip-path="url(#clip590)" d="M2248.86 194.187 L2248.86 180.159 L2253.12 180.159 L2253.12 216.178 L2248.86 216.178 L2248.86 212.289 Q2247.52 214.603 2245.46 215.738 Q2243.42 216.849 2240.55 216.849 Q2235.85 216.849 2232.89 213.099 Q2229.95 209.349 2229.95 203.238 Q2229.95 197.127 2232.89 193.377 Q2235.85 189.627 2240.55 189.627 Q2243.42 189.627 2245.46 190.761 Q2247.52 191.872 2248.86 194.187 M2234.34 203.238 Q2234.34 207.937 2236.27 210.622 Q2238.21 213.284 2241.59 213.284 Q2244.97 213.284 2246.91 210.622 Q2248.86 207.937 2248.86 203.238 Q2248.86 198.539 2246.91 195.877 Q2244.97 193.192 2241.59 193.192 Q2238.21 193.192 2236.27 195.877 Q2234.34 198.539 2234.34 203.238 Z" fill="#000000" fill-rule="evenodd" fill-opacity="1" /></svg>
