<?xml version="1.0" encoding="utf-8"?>
<svg xmlns="http://www.w3.org/2000/svg" xmlns:xlink="http://www.w3.org/1999/xlink" width="600" height="400" viewBox="0 0 2400 1600">
<defs>
  <clipPath id="clip550">
    <rect x="0" y="0" width="2400" height="1600"/>
  </clipPath>
</defs>
<path clip-path="url(#clip550)" d="M0 1600 L2400 1600 L2400 0 L0 0  Z" fill="#ffffff" fill-rule="evenodd" fill-opacity="1"/>
<defs>
  <clipPath id="clip551">
    <rect x="480" y="0" width="1681" height="1600"/>
  </clipPath>
</defs>
<defs>
  <clipPath id="clip552">
    <rect x="202" y="123" width="2152" height="1301"/>
  </clipPath>
</defs>
<path clip-path="url(#clip550)" d="M202.177 1423.18 L2352.76 1423.18 L2352.76 123.472 L202.177 123.472  Z" fill="#ffffff" fill-rule="evenodd" fill-opacity="1"/>
<polyline clip-path="url(#clip552)" style="stroke:#000000; stroke-linecap:round; stroke-linejoin:round; stroke-width:2; stroke-opacity:0.1; fill:none" points="202.177,1423.18 202.177,123.472 "/>
<polyline clip-path="url(#clip552)" style="stroke:#000000; stroke-linecap:round; stroke-linejoin:round; stroke-width:2; stroke-opacity:0.1; fill:none" points="632.293,1423.18 632.293,123.472 "/>
<polyline clip-path="url(#clip552)" style="stroke:#000000; stroke-linecap:round; stroke-linejoin:round; stroke-width:2; stroke-opacity:0.1; fill:none" points="1062.41,1423.18 1062.41,123.472 "/>
<polyline clip-path="url(#clip552)" style="stroke:#000000; stroke-linecap:round; stroke-linejoin:round; stroke-width:2; stroke-opacity:0.1; fill:none" points="1492.52,1423.18 1492.52,123.472 "/>
<polyline clip-path="url(#clip552)" style="stroke:#000000; stroke-linecap:round; stroke-linejoin:round; stroke-width:2; stroke-opacity:0.1; fill:none" points="1922.64,1423.18 1922.64,123.472 "/>
<polyline clip-path="url(#clip552)" style="stroke:#000000; stroke-linecap:round; stroke-linejoin:round; stroke-width:2; stroke-opacity:0.1; fill:none" points="2352.76,1423.18 2352.76,123.472 "/>
<polyline clip-path="url(#clip550)" style="stroke:#000000; stroke-linecap:round; stroke-linejoin:round; stroke-width:4; stroke-opacity:1; fill:none" points="202.177,1423.18 2352.76,1423.18 "/>
<polyline clip-path="url(#clip550)" style="stroke:#000000; stroke-linecap:round; stroke-linejoin:round; stroke-width:4; stroke-opacity:1; fill:none" points="202.177,1423.18 202.177,1404.28 "/>
<polyline clip-path="url(#clip550)" style="stroke:#000000; stroke-linecap:round; stroke-linejoin:round; stroke-width:4; stroke-opacity:1; fill:none" points="632.293,1423.18 632.293,1404.28 "/>
<polyline clip-path="url(#clip550)" style="stroke:#000000; stroke-linecap:round; stroke-linejoin:round; stroke-width:4; stroke-opacity:1; fill:none" points="1062.41,1423.18 1062.41,1404.28 "/>
<polyline clip-path="url(#clip550)" style="stroke:#000000; stroke-linecap:round; stroke-linejoin:round; stroke-width:4; stroke-opacity:1; fill:none" points="1492.52,1423.18 1492.52,1404.28 "/>
<polyline clip-path="url(#clip550)" style="stroke:#000000; stroke-linecap:round; stroke-linejoin:round; stroke-width:4; stroke-opacity:1; fill:none" points="1922.64,1423.18 1922.64,1404.28 "/>
<polyline clip-path="url(#clip550)" style="stroke:#000000; stroke-linecap:round; stroke-linejoin:round; stroke-width:4; stroke-opacity:1; fill:none" points="2352.76,1423.18 2352.76,1404.28 "/>
<path clip-path="url(#clip550)" d="M202.177 1454.1 Q198.566 1454.1 196.737 1457.66 Q194.931 1461.2 194.931 1468.33 Q194.931 1475.44 196.737 1479.01 Q198.566 1482.55 202.177 1482.55 Q205.811 1482.55 207.616 1479.01 Q209.445 1475.44 209.445 1468.33 Q209.445 1461.2 207.616 1457.66 Q205.811 1454.1 202.177 1454.1 M202.177 1450.39 Q207.987 1450.39 211.042 1455 Q214.121 1459.58 214.121 1468.33 Q214.121 1477.06 211.042 1481.67 Q207.987 1486.25 202.177 1486.25 Q196.367 1486.25 193.288 1481.67 Q190.232 1477.06 190.232 1468.33 Q190.232 1459.58 193.288 1455 Q196.367 1450.39 202.177 1450.39 Z" fill="#000000" fill-rule="evenodd" fill-opacity="1" /><path clip-path="url(#clip550)" d="M622.675 1481.64 L630.313 1481.64 L630.313 1455.28 L622.003 1456.95 L622.003 1452.69 L630.267 1451.02 L634.943 1451.02 L634.943 1481.64 L642.582 1481.64 L642.582 1485.58 L622.675 1485.58 L622.675 1481.64 Z" fill="#000000" fill-rule="evenodd" fill-opacity="1" /><path clip-path="url(#clip550)" d="M1057.06 1481.64 L1073.38 1481.64 L1073.38 1485.58 L1051.44 1485.58 L1051.44 1481.64 Q1054.1 1478.89 1058.68 1474.26 Q1063.29 1469.61 1064.47 1468.27 Q1066.71 1465.74 1067.59 1464.01 Q1068.5 1462.25 1068.5 1460.56 Q1068.5 1457.8 1066.55 1456.07 Q1064.63 1454.33 1061.53 1454.33 Q1059.33 1454.33 1056.88 1455.09 Q1054.45 1455.86 1051.67 1457.41 L1051.67 1452.69 Q1054.49 1451.55 1056.95 1450.97 Q1059.4 1450.39 1061.44 1450.39 Q1066.81 1450.39 1070 1453.08 Q1073.2 1455.77 1073.2 1460.26 Q1073.2 1462.39 1072.39 1464.31 Q1071.6 1466.2 1069.49 1468.8 Q1068.91 1469.47 1065.81 1472.69 Q1062.71 1475.88 1057.06 1481.64 Z" fill="#000000" fill-rule="evenodd" fill-opacity="1" /><path clip-path="url(#clip550)" d="M1496.77 1466.95 Q1500.13 1467.66 1502 1469.93 Q1503.9 1472.2 1503.9 1475.53 Q1503.9 1480.65 1500.38 1483.45 Q1496.86 1486.25 1490.38 1486.25 Q1488.21 1486.25 1485.89 1485.81 Q1483.6 1485.39 1481.15 1484.54 L1481.15 1480.02 Q1483.09 1481.16 1485.41 1481.74 Q1487.72 1482.32 1490.24 1482.32 Q1494.64 1482.32 1496.93 1480.58 Q1499.25 1478.84 1499.25 1475.53 Q1499.25 1472.48 1497.1 1470.77 Q1494.97 1469.03 1491.15 1469.03 L1487.12 1469.03 L1487.12 1465.19 L1491.33 1465.19 Q1494.78 1465.19 1496.61 1463.82 Q1498.44 1462.43 1498.44 1459.84 Q1498.44 1457.18 1496.54 1455.77 Q1494.67 1454.33 1491.15 1454.33 Q1489.23 1454.33 1487.03 1454.75 Q1484.83 1455.16 1482.19 1456.04 L1482.19 1451.88 Q1484.85 1451.14 1487.17 1450.77 Q1489.5 1450.39 1491.56 1450.39 Q1496.89 1450.39 1499.99 1452.83 Q1503.09 1455.23 1503.09 1459.35 Q1503.09 1462.22 1501.45 1464.21 Q1499.8 1466.18 1496.77 1466.95 Z" fill="#000000" fill-rule="evenodd" fill-opacity="1" /><path clip-path="url(#clip550)" d="M1925.65 1455.09 L1913.84 1473.54 L1925.65 1473.54 L1925.65 1455.09 M1924.42 1451.02 L1930.3 1451.02 L1930.3 1473.54 L1935.23 1473.54 L1935.23 1477.43 L1930.3 1477.43 L1930.3 1485.58 L1925.65 1485.58 L1925.65 1477.43 L1910.05 1477.43 L1910.05 1472.92 L1924.42 1451.02 Z" fill="#000000" fill-rule="evenodd" fill-opacity="1" /><path clip-path="url(#clip550)" d="M2343.03 1451.02 L2361.39 1451.02 L2361.39 1454.96 L2347.32 1454.96 L2347.32 1463.43 Q2348.33 1463.08 2349.35 1462.92 Q2350.37 1462.73 2351.39 1462.73 Q2357.18 1462.73 2360.56 1465.9 Q2363.94 1469.08 2363.94 1474.49 Q2363.94 1480.07 2360.46 1483.17 Q2356.99 1486.25 2350.67 1486.25 Q2348.5 1486.25 2346.23 1485.88 Q2343.98 1485.51 2341.58 1484.77 L2341.58 1480.07 Q2343.66 1481.2 2345.88 1481.76 Q2348.1 1482.32 2350.58 1482.32 Q2354.58 1482.32 2356.92 1480.21 Q2359.26 1478.1 2359.26 1474.49 Q2359.26 1470.88 2356.92 1468.77 Q2354.58 1466.67 2350.58 1466.67 Q2348.71 1466.67 2346.83 1467.08 Q2344.98 1467.5 2343.03 1468.38 L2343.03 1451.02 Z" fill="#000000" fill-rule="evenodd" fill-opacity="1" /><path clip-path="url(#clip550)" d="M1243.43 1522.08 L1243.43 1528.35 Q1239.77 1526.6 1236.52 1525.74 Q1233.27 1524.88 1230.25 1524.88 Q1225 1524.88 1222.13 1526.92 Q1219.3 1528.96 1219.3 1532.71 Q1219.3 1535.87 1221.18 1537.49 Q1223.09 1539.08 1228.37 1540.07 L1232.25 1540.86 Q1239.45 1542.23 1242.85 1545.7 Q1246.29 1549.14 1246.29 1554.93 Q1246.29 1561.84 1241.64 1565.4 Q1237.03 1568.97 1228.08 1568.97 Q1224.71 1568.97 1220.89 1568.2 Q1217.1 1567.44 1213.03 1565.94 L1213.03 1559.32 Q1216.94 1561.52 1220.7 1562.63 Q1224.46 1563.75 1228.08 1563.75 Q1233.59 1563.75 1236.58 1561.58 Q1239.57 1559.42 1239.57 1555.41 Q1239.57 1551.91 1237.41 1549.93 Q1235.28 1547.96 1230.38 1546.97 L1226.46 1546.21 Q1219.27 1544.78 1216.05 1541.72 Q1212.84 1538.67 1212.84 1533.22 Q1212.84 1526.92 1217.26 1523.29 Q1221.72 1519.66 1229.52 1519.66 Q1232.86 1519.66 1236.33 1520.27 Q1239.8 1520.87 1243.43 1522.08 Z" fill="#000000" fill-rule="evenodd" fill-opacity="1" /><path clip-path="url(#clip550)" d="M1256.32 1520.52 L1264.97 1520.52 L1286.04 1560.28 L1286.04 1520.52 L1292.28 1520.52 L1292.28 1568.04 L1283.63 1568.04 L1262.55 1528.29 L1262.55 1568.04 L1256.32 1568.04 L1256.32 1520.52 Z" fill="#000000" fill-rule="evenodd" fill-opacity="1" /><path clip-path="url(#clip550)" d="M1327.61 1545.76 Q1329.68 1546.46 1331.62 1548.76 Q1333.6 1551.05 1335.57 1555.06 L1342.09 1568.04 L1335.19 1568.04 L1329.11 1555.85 Q1326.75 1551.08 1324.52 1549.52 Q1322.33 1547.96 1318.51 1547.96 L1311.51 1547.96 L1311.51 1568.04 L1305.08 1568.04 L1305.08 1520.52 L1319.59 1520.52 Q1327.74 1520.52 1331.75 1523.93 Q1335.76 1527.34 1335.76 1534.21 Q1335.76 1538.7 1333.66 1541.66 Q1331.59 1544.62 1327.61 1545.76 M1311.51 1525.81 L1311.51 1542.68 L1319.59 1542.68 Q1324.24 1542.68 1326.59 1540.54 Q1328.98 1538.38 1328.98 1534.21 Q1328.98 1530.04 1326.59 1527.94 Q1324.24 1525.81 1319.59 1525.81 L1311.51 1525.81 Z" fill="#000000" fill-rule="evenodd" fill-opacity="1" /><polyline clip-path="url(#clip552)" style="stroke:#000000; stroke-linecap:round; stroke-linejoin:round; stroke-width:2; stroke-opacity:0.1; fill:none" points="202.177,1386.4 2352.76,1386.4 "/>
<polyline clip-path="url(#clip552)" style="stroke:#000000; stroke-linecap:round; stroke-linejoin:round; stroke-width:2; stroke-opacity:0.1; fill:none" points="202.177,1063.77 2352.76,1063.77 "/>
<polyline clip-path="url(#clip552)" style="stroke:#000000; stroke-linecap:round; stroke-linejoin:round; stroke-width:2; stroke-opacity:0.1; fill:none" points="202.177,741.144 2352.76,741.144 "/>
<polyline clip-path="url(#clip552)" style="stroke:#000000; stroke-linecap:round; stroke-linejoin:round; stroke-width:2; stroke-opacity:0.1; fill:none" points="202.177,418.518 2352.76,418.518 "/>
<polyline clip-path="url(#clip550)" style="stroke:#000000; stroke-linecap:round; stroke-linejoin:round; stroke-width:4; stroke-opacity:1; fill:none" points="202.177,1423.18 202.177,123.472 "/>
<polyline clip-path="url(#clip550)" style="stroke:#000000; stroke-linecap:round; stroke-linejoin:round; stroke-width:4; stroke-opacity:1; fill:none" points="202.177,1386.4 221.074,1386.4 "/>
<polyline clip-path="url(#clip550)" style="stroke:#000000; stroke-linecap:round; stroke-linejoin:round; stroke-width:4; stroke-opacity:1; fill:none" points="202.177,1063.77 221.074,1063.77 "/>
<polyline clip-path="url(#clip550)" style="stroke:#000000; stroke-linecap:round; stroke-linejoin:round; stroke-width:4; stroke-opacity:1; fill:none" points="202.177,741.144 221.074,741.144 "/>
<polyline clip-path="url(#clip550)" style="stroke:#000000; stroke-linecap:round; stroke-linejoin:round; stroke-width:4; stroke-opacity:1; fill:none" points="202.177,418.518 221.074,418.518 "/>
<path clip-path="url(#clip550)" d="M154.232 1372.19 Q150.621 1372.19 148.793 1375.76 Q146.987 1379.3 146.987 1386.43 Q146.987 1393.54 148.793 1397.1 Q150.621 1400.64 154.232 1400.64 Q157.867 1400.64 159.672 1397.1 Q161.501 1393.54 161.501 1386.43 Q161.501 1379.3 159.672 1375.76 Q157.867 1372.19 154.232 1372.19 M154.232 1368.49 Q160.042 1368.49 163.098 1373.1 Q166.177 1377.68 166.177 1386.43 Q166.177 1395.16 163.098 1399.76 Q160.042 1404.35 154.232 1404.35 Q148.422 1404.35 145.343 1399.76 Q142.288 1395.16 142.288 1386.43 Q142.288 1377.68 145.343 1373.1 Q148.422 1368.49 154.232 1368.49 Z" fill="#000000" fill-rule="evenodd" fill-opacity="1" /><path clip-path="url(#clip550)" d="M57.7745 1077.11 L74.0939 1077.11 L74.0939 1081.05 L52.1495 1081.05 L52.1495 1077.11 Q54.8115 1074.36 59.3949 1069.73 Q64.0013 1065.08 65.1819 1063.74 Q67.4272 1061.21 68.3068 1059.48 Q69.2096 1057.72 69.2096 1056.03 Q69.2096 1053.27 67.2652 1051.54 Q65.3439 1049.8 62.2421 1049.8 Q60.043 1049.8 57.5893 1050.56 Q55.1588 1051.33 52.381 1052.88 L52.381 1048.16 Q55.2051 1047.02 57.6588 1046.44 Q60.1124 1045.86 62.1495 1045.86 Q67.5198 1045.86 70.7142 1048.55 Q73.9087 1051.24 73.9087 1055.73 Q73.9087 1057.86 73.0985 1059.78 Q72.3115 1061.67 70.205 1064.27 Q69.6263 1064.94 66.5245 1068.16 Q63.4226 1071.35 57.7745 1077.11 Z" fill="#000000" fill-rule="evenodd" fill-opacity="1" /><path clip-path="url(#clip550)" d="M93.9086 1049.57 Q90.2975 1049.57 88.4688 1053.13 Q86.6632 1056.67 86.6632 1063.8 Q86.6632 1070.91 88.4688 1074.48 Q90.2975 1078.02 93.9086 1078.02 Q97.5428 1078.02 99.3483 1074.48 Q101.177 1070.91 101.177 1063.8 Q101.177 1056.67 99.3483 1053.13 Q97.5428 1049.57 93.9086 1049.57 M93.9086 1045.86 Q99.7187 1045.86 102.774 1050.47 Q105.853 1055.05 105.853 1063.8 Q105.853 1072.53 102.774 1077.14 Q99.7187 1081.72 93.9086 1081.72 Q88.0984 1081.72 85.0197 1077.14 Q81.9642 1072.53 81.9642 1063.8 Q81.9642 1055.05 85.0197 1050.47 Q88.0984 1045.86 93.9086 1045.86 Z" fill="#000000" fill-rule="evenodd" fill-opacity="1" /><path clip-path="url(#clip550)" d="M124.07 1049.57 Q120.459 1049.57 118.631 1053.13 Q116.825 1056.67 116.825 1063.8 Q116.825 1070.91 118.631 1074.48 Q120.459 1078.02 124.07 1078.02 Q127.705 1078.02 129.51 1074.48 Q131.339 1070.91 131.339 1063.8 Q131.339 1056.67 129.51 1053.13 Q127.705 1049.57 124.07 1049.57 M124.07 1045.86 Q129.881 1045.86 132.936 1050.47 Q136.015 1055.05 136.015 1063.8 Q136.015 1072.53 132.936 1077.14 Q129.881 1081.72 124.07 1081.72 Q118.26 1081.72 115.182 1077.14 Q112.126 1072.53 112.126 1063.8 Q112.126 1055.05 115.182 1050.47 Q118.26 1045.86 124.07 1045.86 Z" fill="#000000" fill-rule="evenodd" fill-opacity="1" /><path clip-path="url(#clip550)" d="M154.232 1049.57 Q150.621 1049.57 148.793 1053.13 Q146.987 1056.67 146.987 1063.8 Q146.987 1070.91 148.793 1074.48 Q150.621 1078.02 154.232 1078.02 Q157.867 1078.02 159.672 1074.48 Q161.501 1070.91 161.501 1063.8 Q161.501 1056.67 159.672 1053.13 Q157.867 1049.57 154.232 1049.57 M154.232 1045.86 Q160.042 1045.86 163.098 1050.47 Q166.177 1055.05 166.177 1063.8 Q166.177 1072.53 163.098 1077.14 Q160.042 1081.72 154.232 1081.72 Q148.422 1081.72 145.343 1077.14 Q142.288 1072.53 142.288 1063.8 Q142.288 1055.05 145.343 1050.47 Q148.422 1045.86 154.232 1045.86 Z" fill="#000000" fill-rule="evenodd" fill-opacity="1" /><path clip-path="url(#clip550)" d="M66.5939 727.938 L54.7884 746.387 L66.5939 746.387 L66.5939 727.938 M65.367 723.864 L71.2466 723.864 L71.2466 746.387 L76.1772 746.387 L76.1772 750.276 L71.2466 750.276 L71.2466 758.424 L66.5939 758.424 L66.5939 750.276 L50.9921 750.276 L50.9921 745.762 L65.367 723.864 Z" fill="#000000" fill-rule="evenodd" fill-opacity="1" /><path clip-path="url(#clip550)" d="M93.9086 726.943 Q90.2975 726.943 88.4688 730.508 Q86.6632 734.049 86.6632 741.179 Q86.6632 748.285 88.4688 751.85 Q90.2975 755.392 93.9086 755.392 Q97.5428 755.392 99.3483 751.85 Q101.177 748.285 101.177 741.179 Q101.177 734.049 99.3483 730.508 Q97.5428 726.943 93.9086 726.943 M93.9086 723.239 Q99.7187 723.239 102.774 727.846 Q105.853 732.429 105.853 741.179 Q105.853 749.906 102.774 754.512 Q99.7187 759.095 93.9086 759.095 Q88.0984 759.095 85.0197 754.512 Q81.9642 749.906 81.9642 741.179 Q81.9642 732.429 85.0197 727.846 Q88.0984 723.239 93.9086 723.239 Z" fill="#000000" fill-rule="evenodd" fill-opacity="1" /><path clip-path="url(#clip550)" d="M124.07 726.943 Q120.459 726.943 118.631 730.508 Q116.825 734.049 116.825 741.179 Q116.825 748.285 118.631 751.85 Q120.459 755.392 124.07 755.392 Q127.705 755.392 129.51 751.85 Q131.339 748.285 131.339 741.179 Q131.339 734.049 129.51 730.508 Q127.705 726.943 124.07 726.943 M124.07 723.239 Q129.881 723.239 132.936 727.846 Q136.015 732.429 136.015 741.179 Q136.015 749.906 132.936 754.512 Q129.881 759.095 124.07 759.095 Q118.26 759.095 115.182 754.512 Q112.126 749.906 112.126 741.179 Q112.126 732.429 115.182 727.846 Q118.26 723.239 124.07 723.239 Z" fill="#000000" fill-rule="evenodd" fill-opacity="1" /><path clip-path="url(#clip550)" d="M154.232 726.943 Q150.621 726.943 148.793 730.508 Q146.987 734.049 146.987 741.179 Q146.987 748.285 148.793 751.85 Q150.621 755.392 154.232 755.392 Q157.867 755.392 159.672 751.85 Q161.501 748.285 161.501 741.179 Q161.501 734.049 159.672 730.508 Q157.867 726.943 154.232 726.943 M154.232 723.239 Q160.042 723.239 163.098 727.846 Q166.177 732.429 166.177 741.179 Q166.177 749.906 163.098 754.512 Q160.042 759.095 154.232 759.095 Q148.422 759.095 145.343 754.512 Q142.288 749.906 142.288 741.179 Q142.288 732.429 145.343 727.846 Q148.422 723.239 154.232 723.239 Z" fill="#000000" fill-rule="evenodd" fill-opacity="1" /><path clip-path="url(#clip550)" d="M64.3254 416.655 Q61.1773 416.655 59.3254 418.808 Q57.4967 420.96 57.4967 424.71 Q57.4967 428.437 59.3254 430.613 Q61.1773 432.766 64.3254 432.766 Q67.4735 432.766 69.3022 430.613 Q71.1541 428.437 71.1541 424.71 Q71.1541 420.96 69.3022 418.808 Q67.4735 416.655 64.3254 416.655 M73.6077 402.002 L73.6077 406.261 Q71.8485 405.428 70.0429 404.988 Q68.2606 404.548 66.5013 404.548 Q61.8717 404.548 59.418 407.673 Q56.9875 410.798 56.6402 417.118 Q58.006 415.104 60.0662 414.039 Q62.1263 412.951 64.6032 412.951 Q69.8115 412.951 72.8207 416.122 Q75.8531 419.271 75.8531 424.71 Q75.8531 430.034 72.705 433.252 Q69.5568 436.47 64.3254 436.47 Q58.33 436.47 55.1588 431.886 Q51.9875 427.28 51.9875 418.553 Q51.9875 410.359 55.8764 405.497 Q59.7652 400.613 66.3161 400.613 Q68.0754 400.613 69.8578 400.96 Q71.6633 401.308 73.6077 402.002 Z" fill="#000000" fill-rule="evenodd" fill-opacity="1" /><path clip-path="url(#clip550)" d="M93.9086 404.317 Q90.2975 404.317 88.4688 407.882 Q86.6632 411.423 86.6632 418.553 Q86.6632 425.659 88.4688 429.224 Q90.2975 432.766 93.9086 432.766 Q97.5428 432.766 99.3483 429.224 Q101.177 425.659 101.177 418.553 Q101.177 411.423 99.3483 407.882 Q97.5428 404.317 93.9086 404.317 M93.9086 400.613 Q99.7187 400.613 102.774 405.22 Q105.853 409.803 105.853 418.553 Q105.853 427.28 102.774 431.886 Q99.7187 436.47 93.9086 436.47 Q88.0984 436.47 85.0197 431.886 Q81.9642 427.28 81.9642 418.553 Q81.9642 409.803 85.0197 405.22 Q88.0984 400.613 93.9086 400.613 Z" fill="#000000" fill-rule="evenodd" fill-opacity="1" /><path clip-path="url(#clip550)" d="M124.07 404.317 Q120.459 404.317 118.631 407.882 Q116.825 411.423 116.825 418.553 Q116.825 425.659 118.631 429.224 Q120.459 432.766 124.07 432.766 Q127.705 432.766 129.51 429.224 Q131.339 425.659 131.339 418.553 Q131.339 411.423 129.51 407.882 Q127.705 404.317 124.07 404.317 M124.07 400.613 Q129.881 400.613 132.936 405.22 Q136.015 409.803 136.015 418.553 Q136.015 427.28 132.936 431.886 Q129.881 436.47 124.07 436.47 Q118.26 436.47 115.182 431.886 Q112.126 427.28 112.126 418.553 Q112.126 409.803 115.182 405.22 Q118.26 400.613 124.07 400.613 Z" fill="#000000" fill-rule="evenodd" fill-opacity="1" /><path clip-path="url(#clip550)" d="M154.232 404.317 Q150.621 404.317 148.793 407.882 Q146.987 411.423 146.987 418.553 Q146.987 425.659 148.793 429.224 Q150.621 432.766 154.232 432.766 Q157.867 432.766 159.672 429.224 Q161.501 425.659 161.501 418.553 Q161.501 411.423 159.672 407.882 Q157.867 404.317 154.232 404.317 M154.232 400.613 Q160.042 400.613 163.098 405.22 Q166.177 409.803 166.177 418.553 Q166.177 427.28 163.098 431.886 Q160.042 436.47 154.232 436.47 Q148.422 436.47 145.343 431.886 Q142.288 427.28 142.288 418.553 Q142.288 409.803 145.343 405.22 Q148.422 400.613 154.232 400.613 Z" fill="#000000" fill-rule="evenodd" fill-opacity="1" /><path clip-path="url(#clip550)" d="M986.895 14.0809 L986.895 22.0612 Q982.236 19.8332 978.104 18.7395 Q973.973 17.6457 970.124 17.6457 Q963.44 17.6457 959.794 20.2383 Q956.189 22.8309 956.189 27.611 Q956.189 31.6214 958.579 33.6873 Q961.01 35.7128 967.734 36.9686 L972.676 37.9813 Q981.831 39.7232 986.166 44.1387 Q990.541 48.5136 990.541 55.8863 Q990.541 64.6767 984.626 69.2137 Q978.753 73.7508 967.37 73.7508 Q963.076 73.7508 958.215 72.7785 Q953.394 71.8063 948.209 69.9024 L948.209 61.4765 Q953.191 64.2716 957.971 65.6895 Q962.752 67.1073 967.37 67.1073 Q974.378 67.1073 978.185 64.3527 Q981.993 61.598 981.993 56.4939 Q981.993 52.0379 979.239 49.5264 Q976.525 47.0148 970.286 45.759 L965.304 44.7868 Q956.149 42.9639 952.057 39.075 Q947.966 35.1862 947.966 28.2591 Q947.966 20.2383 953.597 15.6203 Q959.268 11.0023 969.192 11.0023 Q973.446 11.0023 977.861 11.7719 Q982.277 12.5416 986.895 14.0809 Z" fill="#000000" fill-rule="evenodd" fill-opacity="1" /><path clip-path="url(#clip550)" d="M1003.3 12.096 L1014.32 12.096 L1041.14 62.6918 L1041.14 12.096 L1049.08 12.096 L1049.08 72.576 L1038.06 72.576 L1011.24 21.9802 L1011.24 72.576 L1003.3 72.576 L1003.3 12.096 Z" fill="#000000" fill-rule="evenodd" fill-opacity="1" /><path clip-path="url(#clip550)" d="M1094.04 44.2197 Q1096.67 45.1109 1099.15 48.0275 Q1101.66 50.9442 1104.17 56.0483 L1112.47 72.576 L1103.68 72.576 L1095.95 57.061 Q1092.95 50.9847 1090.11 48.9997 Q1087.32 47.0148 1082.46 47.0148 L1073.54 47.0148 L1073.54 72.576 L1065.36 72.576 L1065.36 12.096 L1083.83 12.096 Q1094.2 12.096 1099.31 16.4305 Q1104.41 20.7649 1104.41 29.5149 Q1104.41 35.2267 1101.74 38.994 Q1099.1 42.7613 1094.04 44.2197 M1073.54 18.8205 L1073.54 40.2903 L1083.83 40.2903 Q1089.75 40.2903 1092.75 37.5762 Q1095.78 34.8216 1095.78 29.5149 Q1095.78 24.2082 1092.75 21.5346 Q1089.75 18.8205 1083.83 18.8205 L1073.54 18.8205 Z" fill="#000000" fill-rule="evenodd" fill-opacity="1" /><path clip-path="url(#clip550)" d="M1178.91 34.0924 L1178.91 9.54393 L1186.36 9.54393 L1186.36 72.576 L1178.91 72.576 L1178.91 65.7705 Q1176.56 69.8214 1172.95 71.8063 Q1169.39 73.7508 1164.37 73.7508 Q1156.14 73.7508 1150.96 67.1883 Q1145.81 60.6258 1145.81 49.9314 Q1145.81 39.2371 1150.96 32.6746 Q1156.14 26.1121 1164.37 26.1121 Q1169.39 26.1121 1172.95 28.0971 Q1176.56 30.0415 1178.91 34.0924 M1153.51 49.9314 Q1153.51 58.1548 1156.87 62.8538 Q1160.27 67.5124 1166.19 67.5124 Q1172.1 67.5124 1175.51 62.8538 Q1178.91 58.1548 1178.91 49.9314 Q1178.91 41.7081 1175.51 37.0496 Q1172.1 32.3505 1166.19 32.3505 Q1160.27 32.3505 1156.87 37.0496 Q1153.51 41.7081 1153.51 49.9314 Z" fill="#000000" fill-rule="evenodd" fill-opacity="1" /><path clip-path="url(#clip550)" d="M1201.71 27.2059 L1209.17 27.2059 L1209.17 72.576 L1201.71 72.576 L1201.71 27.2059 M1201.71 9.54393 L1209.17 9.54393 L1209.17 18.9825 L1201.71 18.9825 L1201.71 9.54393 Z" fill="#000000" fill-rule="evenodd" fill-opacity="1" /><path clip-path="url(#clip550)" d="M1253.69 28.5427 L1253.69 35.5912 Q1250.53 33.9709 1247.13 33.1607 Q1243.72 32.3505 1240.08 32.3505 Q1234.53 32.3505 1231.73 34.0519 Q1228.98 35.7533 1228.98 39.156 Q1228.98 41.7486 1230.96 43.2475 Q1232.95 44.7058 1238.94 46.0426 L1241.49 46.6097 Q1249.43 48.3111 1252.76 51.4303 Q1256.12 54.509 1256.12 60.0587 Q1256.12 66.3781 1251.09 70.0644 Q1246.11 73.7508 1237.36 73.7508 Q1233.72 73.7508 1229.75 73.0216 Q1225.82 72.3329 1221.44 70.9151 L1221.44 63.2184 Q1225.57 65.3654 1229.58 66.4591 Q1233.6 67.5124 1237.52 67.5124 Q1242.79 67.5124 1245.63 65.73 Q1248.46 63.9071 1248.46 60.6258 Q1248.46 57.5877 1246.4 55.9673 Q1244.37 54.3469 1237.44 52.8481 L1234.85 52.2405 Q1227.92 50.7821 1224.85 47.7845 Q1221.77 44.7463 1221.77 39.4801 Q1221.77 33.0797 1226.3 29.5959 Q1230.84 26.1121 1239.19 26.1121 Q1243.32 26.1121 1246.96 26.7198 Q1250.61 27.3274 1253.69 28.5427 Z" fill="#000000" fill-rule="evenodd" fill-opacity="1" /><path clip-path="url(#clip550)" d="M1275.36 14.324 L1275.36 27.2059 L1290.71 27.2059 L1290.71 32.9987 L1275.36 32.9987 L1275.36 57.6282 Q1275.36 63.1779 1276.86 64.7578 Q1278.4 66.3376 1283.06 66.3376 L1290.71 66.3376 L1290.71 72.576 L1283.06 72.576 Q1274.43 72.576 1271.15 69.3758 Q1267.87 66.1351 1267.87 57.6282 L1267.87 32.9987 L1262.4 32.9987 L1262.4 27.2059 L1267.87 27.2059 L1267.87 14.324 L1275.36 14.324 Z" fill="#000000" fill-rule="evenodd" fill-opacity="1" /><path clip-path="url(#clip550)" d="M1326.81 34.1734 Q1325.55 33.4443 1324.05 33.1202 Q1322.59 32.7556 1320.81 32.7556 Q1314.49 32.7556 1311.09 36.8875 Q1307.73 40.9789 1307.73 48.6757 L1307.73 72.576 L1300.23 72.576 L1300.23 27.2059 L1307.73 27.2059 L1307.73 34.2544 Q1310.08 30.1225 1313.84 28.1376 Q1317.61 26.1121 1323 26.1121 Q1323.77 26.1121 1324.7 26.2337 Q1325.63 26.3147 1326.77 26.5172 L1326.81 34.1734 Z" fill="#000000" fill-rule="evenodd" fill-opacity="1" /><path clip-path="url(#clip550)" d="M1334.62 27.2059 L1342.08 27.2059 L1342.08 72.576 L1334.62 72.576 L1334.62 27.2059 M1334.62 9.54393 L1342.08 9.54393 L1342.08 18.9825 L1334.62 18.9825 L1334.62 9.54393 Z" fill="#000000" fill-rule="evenodd" fill-opacity="1" /><path clip-path="url(#clip550)" d="M1390.24 49.9314 Q1390.24 41.7081 1386.84 37.0496 Q1383.48 32.3505 1377.56 32.3505 Q1371.65 32.3505 1368.25 37.0496 Q1364.88 41.7081 1364.88 49.9314 Q1364.88 58.1548 1368.25 62.8538 Q1371.65 67.5124 1377.56 67.5124 Q1383.48 67.5124 1386.84 62.8538 Q1390.24 58.1548 1390.24 49.9314 M1364.88 34.0924 Q1367.23 30.0415 1370.8 28.0971 Q1374.4 26.1121 1379.39 26.1121 Q1387.65 26.1121 1392.8 32.6746 Q1397.98 39.2371 1397.98 49.9314 Q1397.98 60.6258 1392.8 67.1883 Q1387.65 73.7508 1379.39 73.7508 Q1374.4 73.7508 1370.8 71.8063 Q1367.23 69.8214 1364.88 65.7705 L1364.88 72.576 L1357.39 72.576 L1357.39 9.54393 L1364.88 9.54393 L1364.88 34.0924 Z" fill="#000000" fill-rule="evenodd" fill-opacity="1" /><path clip-path="url(#clip550)" d="M1409.57 54.671 L1409.57 27.2059 L1417.02 27.2059 L1417.02 54.3874 Q1417.02 60.8284 1419.53 64.0691 Q1422.04 67.2693 1427.07 67.2693 Q1433.1 67.2693 1436.59 63.421 Q1440.11 59.5726 1440.11 52.9291 L1440.11 27.2059 L1447.56 27.2059 L1447.56 72.576 L1440.11 72.576 L1440.11 65.6084 Q1437.4 69.7404 1433.79 71.7658 Q1430.23 73.7508 1425.49 73.7508 Q1417.67 73.7508 1413.62 68.8897 Q1409.57 64.0286 1409.57 54.671 M1428.32 26.1121 L1428.32 26.1121 Z" fill="#000000" fill-rule="evenodd" fill-opacity="1" /><path clip-path="url(#clip550)" d="M1470.29 14.324 L1470.29 27.2059 L1485.64 27.2059 L1485.64 32.9987 L1470.29 32.9987 L1470.29 57.6282 Q1470.29 63.1779 1471.79 64.7578 Q1473.33 66.3376 1477.99 66.3376 L1485.64 66.3376 L1485.64 72.576 L1477.99 72.576 Q1469.36 72.576 1466.08 69.3758 Q1462.8 66.1351 1462.8 57.6282 L1462.8 32.9987 L1457.33 32.9987 L1457.33 27.2059 L1462.8 27.2059 L1462.8 14.324 L1470.29 14.324 Z" fill="#000000" fill-rule="evenodd" fill-opacity="1" /><path clip-path="url(#clip550)" d="M1495.45 27.2059 L1502.9 27.2059 L1502.9 72.576 L1495.45 72.576 L1495.45 27.2059 M1495.45 9.54393 L1502.9 9.54393 L1502.9 18.9825 L1495.45 18.9825 L1495.45 9.54393 Z" fill="#000000" fill-rule="evenodd" fill-opacity="1" /><path clip-path="url(#clip550)" d="M1536.08 32.4315 Q1530.08 32.4315 1526.6 37.1306 Q1523.11 41.7891 1523.11 49.9314 Q1523.11 58.0738 1526.56 62.7728 Q1530.04 67.4314 1536.08 67.4314 Q1542.03 67.4314 1545.51 62.7323 Q1549 58.0333 1549 49.9314 Q1549 41.8701 1545.51 37.1711 Q1542.03 32.4315 1536.08 32.4315 M1536.08 26.1121 Q1545.8 26.1121 1551.35 32.4315 Q1556.9 38.7509 1556.9 49.9314 Q1556.9 61.0714 1551.35 67.4314 Q1545.8 73.7508 1536.08 73.7508 Q1526.31 73.7508 1520.76 67.4314 Q1515.25 61.0714 1515.25 49.9314 Q1515.25 38.7509 1520.76 32.4315 Q1526.31 26.1121 1536.08 26.1121 Z" fill="#000000" fill-rule="evenodd" fill-opacity="1" /><path clip-path="url(#clip550)" d="M1606.97 45.1919 L1606.97 72.576 L1599.51 72.576 L1599.51 45.4349 Q1599.51 38.994 1597 35.7938 Q1594.49 32.5936 1589.47 32.5936 Q1583.43 32.5936 1579.95 36.4419 Q1576.46 40.2903 1576.46 46.9338 L1576.46 72.576 L1568.97 72.576 L1568.97 27.2059 L1576.46 27.2059 L1576.46 34.2544 Q1579.14 30.163 1582.74 28.1376 Q1586.39 26.1121 1591.13 26.1121 Q1598.95 26.1121 1602.96 30.9732 Q1606.97 35.7938 1606.97 45.1919 Z" fill="#000000" fill-rule="evenodd" fill-opacity="1" /><path clip-path="url(#clip552)" d="M202.177 185.582 L202.177 1386.4 L245.188 1386.4 L245.188 185.582 L202.177 185.582 L202.177 185.582  Z" fill="#009af9" fill-rule="evenodd" fill-opacity="0.4"/>
<polyline clip-path="url(#clip552)" style="stroke:#000000; stroke-linecap:round; stroke-linejoin:round; stroke-width:4; stroke-opacity:0.4; fill:none" points="202.177,185.582 202.177,1386.4 245.188,1386.4 245.188,185.582 202.177,185.582 "/>
<path clip-path="url(#clip552)" d="M245.188 169.935 L245.188 1386.4 L288.2 1386.4 L288.2 169.935 L245.188 169.935 L245.188 169.935  Z" fill="#009af9" fill-rule="evenodd" fill-opacity="0.4"/>
<polyline clip-path="url(#clip552)" style="stroke:#000000; stroke-linecap:round; stroke-linejoin:round; stroke-width:4; stroke-opacity:0.4; fill:none" points="245.188,169.935 245.188,1386.4 288.2,1386.4 288.2,169.935 245.188,169.935 "/>
<path clip-path="url(#clip552)" d="M288.2 194.293 L288.2 1386.4 L331.211 1386.4 L331.211 194.293 L288.2 194.293 L288.2 194.293  Z" fill="#009af9" fill-rule="evenodd" fill-opacity="0.4"/>
<polyline clip-path="url(#clip552)" style="stroke:#000000; stroke-linecap:round; stroke-linejoin:round; stroke-width:4; stroke-opacity:0.4; fill:none" points="288.2,194.293 288.2,1386.4 331.211,1386.4 331.211,194.293 288.2,194.293 "/>
<path clip-path="url(#clip552)" d="M331.211 176.549 L331.211 1386.4 L374.223 1386.4 L374.223 176.549 L331.211 176.549 L331.211 176.549  Z" fill="#009af9" fill-rule="evenodd" fill-opacity="0.4"/>
<polyline clip-path="url(#clip552)" style="stroke:#000000; stroke-linecap:round; stroke-linejoin:round; stroke-width:4; stroke-opacity:0.4; fill:none" points="331.211,176.549 331.211,1386.4 374.223,1386.4 374.223,176.549 331.211,176.549 "/>
<path clip-path="url(#clip552)" d="M374.223 204.295 L374.223 1386.4 L417.235 1386.4 L417.235 204.295 L374.223 204.295 L374.223 204.295  Z" fill="#009af9" fill-rule="evenodd" fill-opacity="0.4"/>
<polyline clip-path="url(#clip552)" style="stroke:#000000; stroke-linecap:round; stroke-linejoin:round; stroke-width:4; stroke-opacity:0.4; fill:none" points="374.223,204.295 374.223,1386.4 417.235,1386.4 417.235,204.295 374.223,204.295 "/>
<path clip-path="url(#clip552)" d="M417.235 172.355 L417.235 1386.4 L460.246 1386.4 L460.246 172.355 L417.235 172.355 L417.235 172.355  Z" fill="#009af9" fill-rule="evenodd" fill-opacity="0.4"/>
<polyline clip-path="url(#clip552)" style="stroke:#000000; stroke-linecap:round; stroke-linejoin:round; stroke-width:4; stroke-opacity:0.4; fill:none" points="417.235,172.355 417.235,1386.4 460.246,1386.4 460.246,172.355 417.235,172.355 "/>
<path clip-path="url(#clip552)" d="M460.246 160.256 L460.246 1386.4 L503.258 1386.4 L503.258 160.256 L460.246 160.256 L460.246 160.256  Z" fill="#009af9" fill-rule="evenodd" fill-opacity="0.4"/>
<polyline clip-path="url(#clip552)" style="stroke:#000000; stroke-linecap:round; stroke-linejoin:round; stroke-width:4; stroke-opacity:0.4; fill:none" points="460.246,160.256 460.246,1386.4 503.258,1386.4 503.258,160.256 460.246,160.256 "/>
<path clip-path="url(#clip552)" d="M503.258 173.323 L503.258 1386.4 L546.269 1386.4 L546.269 173.323 L503.258 173.323 L503.258 173.323  Z" fill="#009af9" fill-rule="evenodd" fill-opacity="0.4"/>
<polyline clip-path="url(#clip552)" style="stroke:#000000; stroke-linecap:round; stroke-linejoin:round; stroke-width:4; stroke-opacity:0.4; fill:none" points="503.258,173.323 503.258,1386.4 546.269,1386.4 546.269,173.323 503.258,173.323 "/>
<path clip-path="url(#clip552)" d="M546.269 166.548 L546.269 1386.4 L589.281 1386.4 L589.281 166.548 L546.269 166.548 L546.269 166.548  Z" fill="#009af9" fill-rule="evenodd" fill-opacity="0.4"/>
<polyline clip-path="url(#clip552)" style="stroke:#000000; stroke-linecap:round; stroke-linejoin:round; stroke-width:4; stroke-opacity:0.4; fill:none" points="546.269,166.548 546.269,1386.4 589.281,1386.4 589.281,166.548 546.269,166.548 "/>
<path clip-path="url(#clip552)" d="M589.281 176.872 L589.281 1386.4 L632.293 1386.4 L632.293 176.872 L589.281 176.872 L589.281 176.872  Z" fill="#009af9" fill-rule="evenodd" fill-opacity="0.4"/>
<polyline clip-path="url(#clip552)" style="stroke:#000000; stroke-linecap:round; stroke-linejoin:round; stroke-width:4; stroke-opacity:0.4; fill:none" points="589.281,176.872 589.281,1386.4 632.293,1386.4 632.293,176.872 589.281,176.872 "/>
<path clip-path="url(#clip552)" d="M632.293 394.321 L632.293 1386.4 L675.304 1386.4 L675.304 394.321 L632.293 394.321 L632.293 394.321  Z" fill="#009af9" fill-rule="evenodd" fill-opacity="0.4"/>
<polyline clip-path="url(#clip552)" style="stroke:#000000; stroke-linecap:round; stroke-linejoin:round; stroke-width:4; stroke-opacity:0.4; fill:none" points="632.293,394.321 632.293,1386.4 675.304,1386.4 675.304,394.321 632.293,394.321 "/>
<path clip-path="url(#clip552)" d="M675.304 675.328 L675.304 1386.4 L718.316 1386.4 L718.316 675.328 L675.304 675.328 L675.304 675.328  Z" fill="#009af9" fill-rule="evenodd" fill-opacity="0.4"/>
<polyline clip-path="url(#clip552)" style="stroke:#000000; stroke-linecap:round; stroke-linejoin:round; stroke-width:4; stroke-opacity:0.4; fill:none" points="675.304,675.328 675.304,1386.4 718.316,1386.4 718.316,675.328 675.304,675.328 "/>
<path clip-path="url(#clip552)" d="M718.316 891.488 L718.316 1386.4 L761.327 1386.4 L761.327 891.488 L718.316 891.488 L718.316 891.488  Z" fill="#009af9" fill-rule="evenodd" fill-opacity="0.4"/>
<polyline clip-path="url(#clip552)" style="stroke:#000000; stroke-linecap:round; stroke-linejoin:round; stroke-width:4; stroke-opacity:0.4; fill:none" points="718.316,891.488 718.316,1386.4 761.327,1386.4 761.327,891.488 718.316,891.488 "/>
<path clip-path="url(#clip552)" d="M761.327 1019.73 L761.327 1386.4 L804.339 1386.4 L804.339 1019.73 L761.327 1019.73 L761.327 1019.73  Z" fill="#009af9" fill-rule="evenodd" fill-opacity="0.4"/>
<polyline clip-path="url(#clip552)" style="stroke:#000000; stroke-linecap:round; stroke-linejoin:round; stroke-width:4; stroke-opacity:0.4; fill:none" points="761.327,1019.73 761.327,1386.4 804.339,1386.4 804.339,1019.73 761.327,1019.73 "/>
<path clip-path="url(#clip552)" d="M804.339 1112.81 L804.339 1386.4 L847.35 1386.4 L847.35 1112.81 L804.339 1112.81 L804.339 1112.81  Z" fill="#009af9" fill-rule="evenodd" fill-opacity="0.4"/>
<polyline clip-path="url(#clip552)" style="stroke:#000000; stroke-linecap:round; stroke-linejoin:round; stroke-width:4; stroke-opacity:0.4; fill:none" points="804.339,1112.81 804.339,1386.4 847.35,1386.4 847.35,1112.81 804.339,1112.81 "/>
<path clip-path="url(#clip552)" d="M847.35 1174.75 L847.35 1386.4 L890.362 1386.4 L890.362 1174.75 L847.35 1174.75 L847.35 1174.75  Z" fill="#009af9" fill-rule="evenodd" fill-opacity="0.4"/>
<polyline clip-path="url(#clip552)" style="stroke:#000000; stroke-linecap:round; stroke-linejoin:round; stroke-width:4; stroke-opacity:0.4; fill:none" points="847.35,1174.75 847.35,1386.4 890.362,1386.4 890.362,1174.75 847.35,1174.75 "/>
<path clip-path="url(#clip552)" d="M890.362 1217.5 L890.362 1386.4 L933.374 1386.4 L933.374 1217.5 L890.362 1217.5 L890.362 1217.5  Z" fill="#009af9" fill-rule="evenodd" fill-opacity="0.4"/>
<polyline clip-path="url(#clip552)" style="stroke:#000000; stroke-linecap:round; stroke-linejoin:round; stroke-width:4; stroke-opacity:0.4; fill:none" points="890.362,1217.5 890.362,1386.4 933.374,1386.4 933.374,1217.5 890.362,1217.5 "/>
<path clip-path="url(#clip552)" d="M933.374 1256.05 L933.374 1386.4 L976.385 1386.4 L976.385 1256.05 L933.374 1256.05 L933.374 1256.05  Z" fill="#009af9" fill-rule="evenodd" fill-opacity="0.4"/>
<polyline clip-path="url(#clip552)" style="stroke:#000000; stroke-linecap:round; stroke-linejoin:round; stroke-width:4; stroke-opacity:0.4; fill:none" points="933.374,1256.05 933.374,1386.4 976.385,1386.4 976.385,1256.05 933.374,1256.05 "/>
<path clip-path="url(#clip552)" d="M976.385 1284.45 L976.385 1386.4 L1019.4 1386.4 L1019.4 1284.45 L976.385 1284.45 L976.385 1284.45  Z" fill="#009af9" fill-rule="evenodd" fill-opacity="0.4"/>
<polyline clip-path="url(#clip552)" style="stroke:#000000; stroke-linecap:round; stroke-linejoin:round; stroke-width:4; stroke-opacity:0.4; fill:none" points="976.385,1284.45 976.385,1386.4 1019.4,1386.4 1019.4,1284.45 976.385,1284.45 "/>
<path clip-path="url(#clip552)" d="M1019.4 1297.83 L1019.4 1386.4 L1062.41 1386.4 L1062.41 1297.83 L1019.4 1297.83 L1019.4 1297.83  Z" fill="#009af9" fill-rule="evenodd" fill-opacity="0.4"/>
<polyline clip-path="url(#clip552)" style="stroke:#000000; stroke-linecap:round; stroke-linejoin:round; stroke-width:4; stroke-opacity:0.4; fill:none" points="1019.4,1297.83 1019.4,1386.4 1062.41,1386.4 1062.41,1297.83 1019.4,1297.83 "/>
<path clip-path="url(#clip552)" d="M1062.41 1317.84 L1062.41 1386.4 L1105.42 1386.4 L1105.42 1317.84 L1062.41 1317.84 L1062.41 1317.84  Z" fill="#009af9" fill-rule="evenodd" fill-opacity="0.4"/>
<polyline clip-path="url(#clip552)" style="stroke:#000000; stroke-linecap:round; stroke-linejoin:round; stroke-width:4; stroke-opacity:0.4; fill:none" points="1062.41,1317.84 1062.41,1386.4 1105.42,1386.4 1105.42,1317.84 1062.41,1317.84 "/>
<path clip-path="url(#clip552)" d="M1105.42 1329.13 L1105.42 1386.4 L1148.43 1386.4 L1148.43 1329.13 L1105.42 1329.13 L1105.42 1329.13  Z" fill="#009af9" fill-rule="evenodd" fill-opacity="0.4"/>
<polyline clip-path="url(#clip552)" style="stroke:#000000; stroke-linecap:round; stroke-linejoin:round; stroke-width:4; stroke-opacity:0.4; fill:none" points="1105.42,1329.13 1105.42,1386.4 1148.43,1386.4 1148.43,1329.13 1105.42,1329.13 "/>
<path clip-path="url(#clip552)" d="M1148.43 1339.61 L1148.43 1386.4 L1191.44 1386.4 L1191.44 1339.61 L1148.43 1339.61 L1148.43 1339.61  Z" fill="#009af9" fill-rule="evenodd" fill-opacity="0.4"/>
<polyline clip-path="url(#clip552)" style="stroke:#000000; stroke-linecap:round; stroke-linejoin:round; stroke-width:4; stroke-opacity:0.4; fill:none" points="1148.43,1339.61 1148.43,1386.4 1191.44,1386.4 1191.44,1339.61 1148.43,1339.61 "/>
<path clip-path="url(#clip552)" d="M1191.44 1348.16 L1191.44 1386.4 L1234.45 1386.4 L1234.45 1348.16 L1191.44 1348.16 L1191.44 1348.16  Z" fill="#009af9" fill-rule="evenodd" fill-opacity="0.4"/>
<polyline clip-path="url(#clip552)" style="stroke:#000000; stroke-linecap:round; stroke-linejoin:round; stroke-width:4; stroke-opacity:0.4; fill:none" points="1191.44,1348.16 1191.44,1386.4 1234.45,1386.4 1234.45,1348.16 1191.44,1348.16 "/>
<path clip-path="url(#clip552)" d="M1234.45 1349.62 L1234.45 1386.4 L1277.47 1386.4 L1277.47 1349.62 L1234.45 1349.62 L1234.45 1349.62  Z" fill="#009af9" fill-rule="evenodd" fill-opacity="0.4"/>
<polyline clip-path="url(#clip552)" style="stroke:#000000; stroke-linecap:round; stroke-linejoin:round; stroke-width:4; stroke-opacity:0.4; fill:none" points="1234.45,1349.62 1234.45,1386.4 1277.47,1386.4 1277.47,1349.62 1234.45,1349.62 "/>
<path clip-path="url(#clip552)" d="M1277.47 1358 L1277.47 1386.4 L1320.48 1386.4 L1320.48 1358 L1277.47 1358 L1277.47 1358  Z" fill="#009af9" fill-rule="evenodd" fill-opacity="0.4"/>
<polyline clip-path="url(#clip552)" style="stroke:#000000; stroke-linecap:round; stroke-linejoin:round; stroke-width:4; stroke-opacity:0.4; fill:none" points="1277.47,1358 1277.47,1386.4 1320.48,1386.4 1320.48,1358 1277.47,1358 "/>
<path clip-path="url(#clip552)" d="M1320.48 1363.49 L1320.48 1386.4 L1363.49 1386.4 L1363.49 1363.49 L1320.48 1363.49 L1320.48 1363.49  Z" fill="#009af9" fill-rule="evenodd" fill-opacity="0.4"/>
<polyline clip-path="url(#clip552)" style="stroke:#000000; stroke-linecap:round; stroke-linejoin:round; stroke-width:4; stroke-opacity:0.4; fill:none" points="1320.48,1363.49 1320.48,1386.4 1363.49,1386.4 1363.49,1363.49 1320.48,1363.49 "/>
<path clip-path="url(#clip552)" d="M1363.49 1365.91 L1363.49 1386.4 L1406.5 1386.4 L1406.5 1365.91 L1363.49 1365.91 L1363.49 1365.91  Z" fill="#009af9" fill-rule="evenodd" fill-opacity="0.4"/>
<polyline clip-path="url(#clip552)" style="stroke:#000000; stroke-linecap:round; stroke-linejoin:round; stroke-width:4; stroke-opacity:0.4; fill:none" points="1363.49,1365.91 1363.49,1386.4 1406.5,1386.4 1406.5,1365.91 1363.49,1365.91 "/>
<path clip-path="url(#clip552)" d="M1406.5 1368.49 L1406.5 1386.4 L1449.51 1386.4 L1449.51 1368.49 L1406.5 1368.49 L1406.5 1368.49  Z" fill="#009af9" fill-rule="evenodd" fill-opacity="0.4"/>
<polyline clip-path="url(#clip552)" style="stroke:#000000; stroke-linecap:round; stroke-linejoin:round; stroke-width:4; stroke-opacity:0.4; fill:none" points="1406.5,1368.49 1406.5,1386.4 1449.51,1386.4 1449.51,1368.49 1406.5,1368.49 "/>
<path clip-path="url(#clip552)" d="M1449.51 1370.26 L1449.51 1386.4 L1492.52 1386.4 L1492.52 1370.26 L1449.51 1370.26 L1449.51 1370.26  Z" fill="#009af9" fill-rule="evenodd" fill-opacity="0.4"/>
<polyline clip-path="url(#clip552)" style="stroke:#000000; stroke-linecap:round; stroke-linejoin:round; stroke-width:4; stroke-opacity:0.4; fill:none" points="1449.51,1370.26 1449.51,1386.4 1492.52,1386.4 1492.52,1370.26 1449.51,1370.26 "/>
<path clip-path="url(#clip552)" d="M1492.52 1372.2 L1492.52 1386.4 L1535.54 1386.4 L1535.54 1372.2 L1492.52 1372.2 L1492.52 1372.2  Z" fill="#009af9" fill-rule="evenodd" fill-opacity="0.4"/>
<polyline clip-path="url(#clip552)" style="stroke:#000000; stroke-linecap:round; stroke-linejoin:round; stroke-width:4; stroke-opacity:0.4; fill:none" points="1492.52,1372.2 1492.52,1386.4 1535.54,1386.4 1535.54,1372.2 1492.52,1372.2 "/>
<path clip-path="url(#clip552)" d="M1535.54 1372.2 L1535.54 1386.4 L1578.55 1386.4 L1578.55 1372.2 L1535.54 1372.2 L1535.54 1372.2  Z" fill="#009af9" fill-rule="evenodd" fill-opacity="0.4"/>
<polyline clip-path="url(#clip552)" style="stroke:#000000; stroke-linecap:round; stroke-linejoin:round; stroke-width:4; stroke-opacity:0.4; fill:none" points="1535.54,1372.2 1535.54,1386.4 1578.55,1386.4 1578.55,1372.2 1535.54,1372.2 "/>
<path clip-path="url(#clip552)" d="M1578.55 1376.56 L1578.55 1386.4 L1621.56 1386.4 L1621.56 1376.56 L1578.55 1376.56 L1578.55 1376.56  Z" fill="#009af9" fill-rule="evenodd" fill-opacity="0.4"/>
<polyline clip-path="url(#clip552)" style="stroke:#000000; stroke-linecap:round; stroke-linejoin:round; stroke-width:4; stroke-opacity:0.4; fill:none" points="1578.55,1376.56 1578.55,1386.4 1621.56,1386.4 1621.56,1376.56 1578.55,1376.56 "/>
<path clip-path="url(#clip552)" d="M1621.56 1376.07 L1621.56 1386.4 L1664.57 1386.4 L1664.57 1376.07 L1621.56 1376.07 L1621.56 1376.07  Z" fill="#009af9" fill-rule="evenodd" fill-opacity="0.4"/>
<polyline clip-path="url(#clip552)" style="stroke:#000000; stroke-linecap:round; stroke-linejoin:round; stroke-width:4; stroke-opacity:0.4; fill:none" points="1621.56,1376.07 1621.56,1386.4 1664.57,1386.4 1664.57,1376.07 1621.56,1376.07 "/>
<path clip-path="url(#clip552)" d="M1664.57 1378.81 L1664.57 1386.4 L1707.58 1386.4 L1707.58 1378.81 L1664.57 1378.81 L1664.57 1378.81  Z" fill="#009af9" fill-rule="evenodd" fill-opacity="0.4"/>
<polyline clip-path="url(#clip552)" style="stroke:#000000; stroke-linecap:round; stroke-linejoin:round; stroke-width:4; stroke-opacity:0.4; fill:none" points="1664.57,1378.81 1664.57,1386.4 1707.58,1386.4 1707.58,1378.81 1664.57,1378.81 "/>
<path clip-path="url(#clip552)" d="M1707.58 1379.3 L1707.58 1386.4 L1750.59 1386.4 L1750.59 1379.3 L1707.58 1379.3 L1707.58 1379.3  Z" fill="#009af9" fill-rule="evenodd" fill-opacity="0.4"/>
<polyline clip-path="url(#clip552)" style="stroke:#000000; stroke-linecap:round; stroke-linejoin:round; stroke-width:4; stroke-opacity:0.4; fill:none" points="1707.58,1379.3 1707.58,1386.4 1750.59,1386.4 1750.59,1379.3 1707.58,1379.3 "/>
<path clip-path="url(#clip552)" d="M1750.59 1378.65 L1750.59 1386.4 L1793.61 1386.4 L1793.61 1378.65 L1750.59 1378.65 L1750.59 1378.65  Z" fill="#009af9" fill-rule="evenodd" fill-opacity="0.4"/>
<polyline clip-path="url(#clip552)" style="stroke:#000000; stroke-linecap:round; stroke-linejoin:round; stroke-width:4; stroke-opacity:0.4; fill:none" points="1750.59,1378.65 1750.59,1386.4 1793.61,1386.4 1793.61,1378.65 1750.59,1378.65 "/>
<path clip-path="url(#clip552)" d="M1793.61 1380.1 L1793.61 1386.4 L1836.62 1386.4 L1836.62 1380.1 L1793.61 1380.1 L1793.61 1380.1  Z" fill="#009af9" fill-rule="evenodd" fill-opacity="0.4"/>
<polyline clip-path="url(#clip552)" style="stroke:#000000; stroke-linecap:round; stroke-linejoin:round; stroke-width:4; stroke-opacity:0.4; fill:none" points="1793.61,1380.1 1793.61,1386.4 1836.62,1386.4 1836.62,1380.1 1793.61,1380.1 "/>
<path clip-path="url(#clip552)" d="M1836.62 1379.94 L1836.62 1386.4 L1879.63 1386.4 L1879.63 1379.94 L1836.62 1379.94 L1836.62 1379.94  Z" fill="#009af9" fill-rule="evenodd" fill-opacity="0.4"/>
<polyline clip-path="url(#clip552)" style="stroke:#000000; stroke-linecap:round; stroke-linejoin:round; stroke-width:4; stroke-opacity:0.4; fill:none" points="1836.62,1379.94 1836.62,1386.4 1879.63,1386.4 1879.63,1379.94 1836.62,1379.94 "/>
<path clip-path="url(#clip552)" d="M1879.63 1381.88 L1879.63 1386.4 L1922.64 1386.4 L1922.64 1381.88 L1879.63 1381.88 L1879.63 1381.88  Z" fill="#009af9" fill-rule="evenodd" fill-opacity="0.4"/>
<polyline clip-path="url(#clip552)" style="stroke:#000000; stroke-linecap:round; stroke-linejoin:round; stroke-width:4; stroke-opacity:0.4; fill:none" points="1879.63,1381.88 1879.63,1386.4 1922.64,1386.4 1922.64,1381.88 1879.63,1381.88 "/>
<path clip-path="url(#clip552)" d="M1922.64 1381.88 L1922.64 1386.4 L1965.65 1386.4 L1965.65 1381.88 L1922.64 1381.88 L1922.64 1381.88  Z" fill="#009af9" fill-rule="evenodd" fill-opacity="0.4"/>
<polyline clip-path="url(#clip552)" style="stroke:#000000; stroke-linecap:round; stroke-linejoin:round; stroke-width:4; stroke-opacity:0.4; fill:none" points="1922.64,1381.88 1922.64,1386.4 1965.65,1386.4 1965.65,1381.88 1922.64,1381.88 "/>
<path clip-path="url(#clip552)" d="M1965.65 1382.52 L1965.65 1386.4 L2008.66 1386.4 L2008.66 1382.52 L1965.65 1382.52 L1965.65 1382.52  Z" fill="#009af9" fill-rule="evenodd" fill-opacity="0.4"/>
<polyline clip-path="url(#clip552)" style="stroke:#000000; stroke-linecap:round; stroke-linejoin:round; stroke-width:4; stroke-opacity:0.4; fill:none" points="1965.65,1382.52 1965.65,1386.4 2008.66,1386.4 2008.66,1382.52 1965.65,1382.52 "/>
<path clip-path="url(#clip552)" d="M2008.66 1382.52 L2008.66 1386.4 L2051.67 1386.4 L2051.67 1382.52 L2008.66 1382.52 L2008.66 1382.52  Z" fill="#009af9" fill-rule="evenodd" fill-opacity="0.4"/>
<polyline clip-path="url(#clip552)" style="stroke:#000000; stroke-linecap:round; stroke-linejoin:round; stroke-width:4; stroke-opacity:0.4; fill:none" points="2008.66,1382.52 2008.66,1386.4 2051.67,1386.4 2051.67,1382.52 2008.66,1382.52 "/>
<path clip-path="url(#clip552)" d="M2051.67 1383.98 L2051.67 1386.4 L2094.69 1386.4 L2094.69 1383.98 L2051.67 1383.98 L2051.67 1383.98  Z" fill="#009af9" fill-rule="evenodd" fill-opacity="0.4"/>
<polyline clip-path="url(#clip552)" style="stroke:#000000; stroke-linecap:round; stroke-linejoin:round; stroke-width:4; stroke-opacity:0.4; fill:none" points="2051.67,1383.98 2051.67,1386.4 2094.69,1386.4 2094.69,1383.98 2051.67,1383.98 "/>
<path clip-path="url(#clip552)" d="M2094.69 1383.81 L2094.69 1386.4 L2137.7 1386.4 L2137.7 1383.81 L2094.69 1383.81 L2094.69 1383.81  Z" fill="#009af9" fill-rule="evenodd" fill-opacity="0.4"/>
<polyline clip-path="url(#clip552)" style="stroke:#000000; stroke-linecap:round; stroke-linejoin:round; stroke-width:4; stroke-opacity:0.4; fill:none" points="2094.69,1383.81 2094.69,1386.4 2137.7,1386.4 2137.7,1383.81 2094.69,1383.81 "/>
<path clip-path="url(#clip552)" d="M2137.7 1384.14 L2137.7 1386.4 L2180.71 1386.4 L2180.71 1384.14 L2137.7 1384.14 L2137.7 1384.14  Z" fill="#009af9" fill-rule="evenodd" fill-opacity="0.4"/>
<polyline clip-path="url(#clip552)" style="stroke:#000000; stroke-linecap:round; stroke-linejoin:round; stroke-width:4; stroke-opacity:0.4; fill:none" points="2137.7,1384.14 2137.7,1386.4 2180.71,1386.4 2180.71,1384.14 2137.7,1384.14 "/>
<path clip-path="url(#clip552)" d="M2180.71 1384.46 L2180.71 1386.4 L2223.72 1386.4 L2223.72 1384.46 L2180.71 1384.46 L2180.71 1384.46  Z" fill="#009af9" fill-rule="evenodd" fill-opacity="0.4"/>
<polyline clip-path="url(#clip552)" style="stroke:#000000; stroke-linecap:round; stroke-linejoin:round; stroke-width:4; stroke-opacity:0.4; fill:none" points="2180.71,1384.46 2180.71,1386.4 2223.72,1386.4 2223.72,1384.46 2180.71,1384.46 "/>
<path clip-path="url(#clip552)" d="M2223.72 1383.81 L2223.72 1386.4 L2266.73 1386.4 L2266.73 1383.81 L2223.72 1383.81 L2223.72 1383.81  Z" fill="#009af9" fill-rule="evenodd" fill-opacity="0.4"/>
<polyline clip-path="url(#clip552)" style="stroke:#000000; stroke-linecap:round; stroke-linejoin:round; stroke-width:4; stroke-opacity:0.4; fill:none" points="2223.72,1383.81 2223.72,1386.4 2266.73,1386.4 2266.73,1383.81 2223.72,1383.81 "/>
<path clip-path="url(#clip552)" d="M2266.73 1383.81 L2266.73 1386.4 L2309.74 1386.4 L2309.74 1383.81 L2266.73 1383.81 L2266.73 1383.81  Z" fill="#009af9" fill-rule="evenodd" fill-opacity="0.4"/>
<polyline clip-path="url(#clip552)" style="stroke:#000000; stroke-linecap:round; stroke-linejoin:round; stroke-width:4; stroke-opacity:0.4; fill:none" points="2266.73,1383.81 2266.73,1386.4 2309.74,1386.4 2309.74,1383.81 2266.73,1383.81 "/>
<path clip-path="url(#clip552)" d="M2309.74 1383.65 L2309.74 1386.4 L2352.76 1386.4 L2352.76 1383.65 L2309.74 1383.65 L2309.74 1383.65  Z" fill="#009af9" fill-rule="evenodd" fill-opacity="0.4"/>
<polyline clip-path="url(#clip552)" style="stroke:#000000; stroke-linecap:round; stroke-linejoin:round; stroke-width:4; stroke-opacity:0.4; fill:none" points="2309.74,1383.65 2309.74,1386.4 2352.76,1386.4 2352.76,1383.65 2309.74,1383.65 "/>
<circle clip-path="url(#clip552)" style="fill:#009af9; stroke:none; fill-opacity:0" cx="223.682" cy="185.582" r="2"/>
<circle clip-path="url(#clip552)" style="fill:#009af9; stroke:none; fill-opacity:0" cx="266.694" cy="169.935" r="2"/>
<circle clip-path="url(#clip552)" style="fill:#009af9; stroke:none; fill-opacity:0" cx="309.706" cy="194.293" r="2"/>
<circle clip-path="url(#clip552)" style="fill:#009af9; stroke:none; fill-opacity:0" cx="352.717" cy="176.549" r="2"/>
<circle clip-path="url(#clip552)" style="fill:#009af9; stroke:none; fill-opacity:0" cx="395.729" cy="204.295" r="2"/>
<circle clip-path="url(#clip552)" style="fill:#009af9; stroke:none; fill-opacity:0" cx="438.74" cy="172.355" r="2"/>
<circle clip-path="url(#clip552)" style="fill:#009af9; stroke:none; fill-opacity:0" cx="481.752" cy="160.256" r="2"/>
<circle clip-path="url(#clip552)" style="fill:#009af9; stroke:none; fill-opacity:0" cx="524.764" cy="173.323" r="2"/>
<circle clip-path="url(#clip552)" style="fill:#009af9; stroke:none; fill-opacity:0" cx="567.775" cy="166.548" r="2"/>
<circle clip-path="url(#clip552)" style="fill:#009af9; stroke:none; fill-opacity:0" cx="610.787" cy="176.872" r="2"/>
<circle clip-path="url(#clip552)" style="fill:#009af9; stroke:none; fill-opacity:0" cx="653.798" cy="394.321" r="2"/>
<circle clip-path="url(#clip552)" style="fill:#009af9; stroke:none; fill-opacity:0" cx="696.81" cy="675.328" r="2"/>
<circle clip-path="url(#clip552)" style="fill:#009af9; stroke:none; fill-opacity:0" cx="739.821" cy="891.488" r="2"/>
<circle clip-path="url(#clip552)" style="fill:#009af9; stroke:none; fill-opacity:0" cx="782.833" cy="1019.73" r="2"/>
<circle clip-path="url(#clip552)" style="fill:#009af9; stroke:none; fill-opacity:0" cx="825.845" cy="1112.81" r="2"/>
<circle clip-path="url(#clip552)" style="fill:#009af9; stroke:none; fill-opacity:0" cx="868.856" cy="1174.75" r="2"/>
<circle clip-path="url(#clip552)" style="fill:#009af9; stroke:none; fill-opacity:0" cx="911.868" cy="1217.5" r="2"/>
<circle clip-path="url(#clip552)" style="fill:#009af9; stroke:none; fill-opacity:0" cx="954.879" cy="1256.05" r="2"/>
<circle clip-path="url(#clip552)" style="fill:#009af9; stroke:none; fill-opacity:0" cx="997.891" cy="1284.45" r="2"/>
<circle clip-path="url(#clip552)" style="fill:#009af9; stroke:none; fill-opacity:0" cx="1040.9" cy="1297.83" r="2"/>
<circle clip-path="url(#clip552)" style="fill:#009af9; stroke:none; fill-opacity:0" cx="1083.91" cy="1317.84" r="2"/>
<circle clip-path="url(#clip552)" style="fill:#009af9; stroke:none; fill-opacity:0" cx="1126.93" cy="1329.13" r="2"/>
<circle clip-path="url(#clip552)" style="fill:#009af9; stroke:none; fill-opacity:0" cx="1169.94" cy="1339.61" r="2"/>
<circle clip-path="url(#clip552)" style="fill:#009af9; stroke:none; fill-opacity:0" cx="1212.95" cy="1348.16" r="2"/>
<circle clip-path="url(#clip552)" style="fill:#009af9; stroke:none; fill-opacity:0" cx="1255.96" cy="1349.62" r="2"/>
<circle clip-path="url(#clip552)" style="fill:#009af9; stroke:none; fill-opacity:0" cx="1298.97" cy="1358" r="2"/>
<circle clip-path="url(#clip552)" style="fill:#009af9; stroke:none; fill-opacity:0" cx="1341.98" cy="1363.49" r="2"/>
<circle clip-path="url(#clip552)" style="fill:#009af9; stroke:none; fill-opacity:0" cx="1385" cy="1365.91" r="2"/>
<circle clip-path="url(#clip552)" style="fill:#009af9; stroke:none; fill-opacity:0" cx="1428.01" cy="1368.49" r="2"/>
<circle clip-path="url(#clip552)" style="fill:#009af9; stroke:none; fill-opacity:0" cx="1471.02" cy="1370.26" r="2"/>
<circle clip-path="url(#clip552)" style="fill:#009af9; stroke:none; fill-opacity:0" cx="1514.03" cy="1372.2" r="2"/>
<circle clip-path="url(#clip552)" style="fill:#009af9; stroke:none; fill-opacity:0" cx="1557.04" cy="1372.2" r="2"/>
<circle clip-path="url(#clip552)" style="fill:#009af9; stroke:none; fill-opacity:0" cx="1600.05" cy="1376.56" r="2"/>
<circle clip-path="url(#clip552)" style="fill:#009af9; stroke:none; fill-opacity:0" cx="1643.06" cy="1376.07" r="2"/>
<circle clip-path="url(#clip552)" style="fill:#009af9; stroke:none; fill-opacity:0" cx="1686.08" cy="1378.81" r="2"/>
<circle clip-path="url(#clip552)" style="fill:#009af9; stroke:none; fill-opacity:0" cx="1729.09" cy="1379.3" r="2"/>
<circle clip-path="url(#clip552)" style="fill:#009af9; stroke:none; fill-opacity:0" cx="1772.1" cy="1378.65" r="2"/>
<circle clip-path="url(#clip552)" style="fill:#009af9; stroke:none; fill-opacity:0" cx="1815.11" cy="1380.1" r="2"/>
<circle clip-path="url(#clip552)" style="fill:#009af9; stroke:none; fill-opacity:0" cx="1858.12" cy="1379.94" r="2"/>
<circle clip-path="url(#clip552)" style="fill:#009af9; stroke:none; fill-opacity:0" cx="1901.13" cy="1381.88" r="2"/>
<circle clip-path="url(#clip552)" style="fill:#009af9; stroke:none; fill-opacity:0" cx="1944.15" cy="1381.88" r="2"/>
<circle clip-path="url(#clip552)" style="fill:#009af9; stroke:none; fill-opacity:0" cx="1987.16" cy="1382.52" r="2"/>
<circle clip-path="url(#clip552)" style="fill:#009af9; stroke:none; fill-opacity:0" cx="2030.17" cy="1382.52" r="2"/>
<circle clip-path="url(#clip552)" style="fill:#009af9; stroke:none; fill-opacity:0" cx="2073.18" cy="1383.98" r="2"/>
<circle clip-path="url(#clip552)" style="fill:#009af9; stroke:none; fill-opacity:0" cx="2116.19" cy="1383.81" r="2"/>
<circle clip-path="url(#clip552)" style="fill:#009af9; stroke:none; fill-opacity:0" cx="2159.2" cy="1384.14" r="2"/>
<circle clip-path="url(#clip552)" style="fill:#009af9; stroke:none; fill-opacity:0" cx="2202.22" cy="1384.46" r="2"/>
<circle clip-path="url(#clip552)" style="fill:#009af9; stroke:none; fill-opacity:0" cx="2245.23" cy="1383.81" r="2"/>
<circle clip-path="url(#clip552)" style="fill:#009af9; stroke:none; fill-opacity:0" cx="2288.24" cy="1383.81" r="2"/>
<circle clip-path="url(#clip552)" style="fill:#009af9; stroke:none; fill-opacity:0" cx="2331.25" cy="1383.65" r="2"/>
<polyline clip-path="url(#clip552)" style="stroke:#e26f46; stroke-linecap:round; stroke-linejoin:round; stroke-width:8; stroke-opacity:1; fill:none" points="632.293,2722.89 632.293,-1176.24 "/>
<polyline clip-path="url(#clip552)" style="stroke:#008000; stroke-linecap:round; stroke-linejoin:round; stroke-width:8; stroke-opacity:1; fill:none" points="632.293,176.549 675.304,560.054 718.316,802.943 761.327,962.795 804.339,1071.46 847.35,1147.41 890.362,1201.79 933.374,1241.54 976.385,1271.15 1019.4,1293.56 1062.41,1310.78 1105.42,1324.19 1148.43,1334.75 1191.44,1343.16 1234.45,1349.93 1277.47,1355.42 1320.48,1359.92 1363.49,1363.63 1406.5,1366.71 1449.51,1369.29 1492.52,1371.46 1535.54,1373.3 1578.55,1374.86 1621.56,1376.19 1664.57,1377.34 1707.58,1378.33 1750.59,1379.19 1793.61,1379.94 1836.62,1380.59 1879.63,1381.17 1922.64,1381.67 1965.65,1382.11 2008.66,1382.51 2051.67,1382.86 2094.69,1383.17 2137.7,1383.45 2180.71,1383.69 2223.72,1383.92 2266.73,1384.12 2309.74,1384.3 2352.76,1384.46 "/>
<polyline clip-path="url(#clip552)" style="stroke:#008000; stroke-linecap:round; stroke-linejoin:round; stroke-width:8; stroke-opacity:1; fill:none" points="202.177,176.549 245.188,176.549 288.2,176.549 331.211,176.549 374.223,176.549 417.235,176.549 460.246,176.549 503.258,176.549 546.269,176.549 589.281,176.549 632.293,176.549 "/>
<path clip-path="url(#clip550)" d="M1266.73 581.516 L2281.07 581.516 L2281.07 166.796 L1266.73 166.796  Z" fill="#ffffff" fill-rule="evenodd" fill-opacity="1"/>
<polyline clip-path="url(#clip550)" style="stroke:#000000; stroke-linecap:round; stroke-linejoin:round; stroke-width:4; stroke-opacity:1; fill:none" points="1266.73,581.516 2281.07,581.516 2281.07,166.796 1266.73,166.796 1266.73,581.516 "/>
<polyline clip-path="url(#clip550)" style="stroke:#e26f46; stroke-linecap:round; stroke-linejoin:round; stroke-width:8; stroke-opacity:1; fill:none" points="1290.63,270.476 1434,270.476 "/>
<path clip-path="url(#clip550)" d="M1457.9 227.276 L1487.13 227.276 L1487.13 231.211 L1474.86 231.211 L1474.86 261.836 L1470.16 261.836 L1470.16 231.211 L1457.9 231.211 L1457.9 227.276 Z" fill="#000000" fill-rule="evenodd" fill-opacity="1" /><path clip-path="url(#clip550)" d="M1513.01 246.188 L1513.01 261.836 L1508.75 261.836 L1508.75 246.327 Q1508.75 242.646 1507.32 240.817 Q1505.88 238.989 1503.01 238.989 Q1499.56 238.989 1497.57 241.188 Q1495.58 243.387 1495.58 247.183 L1495.58 261.836 L1491.3 261.836 L1491.3 225.817 L1495.58 225.817 L1495.58 239.938 Q1497.11 237.6 1499.17 236.442 Q1501.25 235.285 1503.96 235.285 Q1508.43 235.285 1510.72 238.063 Q1513.01 240.817 1513.01 246.188 Z" fill="#000000" fill-rule="evenodd" fill-opacity="1" /><path clip-path="url(#clip550)" d="M1543.68 247.808 L1543.68 249.891 L1524.1 249.891 Q1524.38 254.289 1526.74 256.604 Q1529.12 258.896 1533.36 258.896 Q1535.81 258.896 1538.1 258.294 Q1540.42 257.692 1542.69 256.489 L1542.69 260.516 Q1540.4 261.488 1537.99 261.998 Q1535.58 262.507 1533.1 262.507 Q1526.9 262.507 1523.27 258.896 Q1519.66 255.285 1519.66 249.127 Q1519.66 242.762 1523.08 239.035 Q1526.53 235.285 1532.36 235.285 Q1537.6 235.285 1540.63 238.665 Q1543.68 242.021 1543.68 247.808 M1539.42 246.558 Q1539.38 243.063 1537.46 240.979 Q1535.56 238.896 1532.41 238.896 Q1528.85 238.896 1526.69 240.91 Q1524.56 242.924 1524.24 246.581 L1539.42 246.558 Z" fill="#000000" fill-rule="evenodd" fill-opacity="1" /><path clip-path="url(#clip550)" d="M1578.87 225.817 L1578.87 229.359 L1574.79 229.359 Q1572.5 229.359 1571.6 230.285 Q1570.72 231.211 1570.72 233.618 L1570.72 235.91 L1577.73 235.91 L1577.73 239.22 L1570.72 239.22 L1570.72 261.836 L1566.44 261.836 L1566.44 239.22 L1562.36 239.22 L1562.36 235.91 L1566.44 235.91 L1566.44 234.104 Q1566.44 229.776 1568.45 227.808 Q1570.47 225.817 1574.84 225.817 L1578.87 225.817 Z" fill="#000000" fill-rule="evenodd" fill-opacity="1" /><path clip-path="url(#clip550)" d="M1581.99 251.604 L1581.99 235.91 L1586.25 235.91 L1586.25 251.442 Q1586.25 255.123 1587.69 256.975 Q1589.12 258.803 1591.99 258.803 Q1595.44 258.803 1597.43 256.604 Q1599.45 254.405 1599.45 250.609 L1599.45 235.91 L1603.71 235.91 L1603.71 261.836 L1599.45 261.836 L1599.45 257.854 Q1597.9 260.215 1595.84 261.373 Q1593.8 262.507 1591.09 262.507 Q1586.62 262.507 1584.31 259.729 Q1581.99 256.951 1581.99 251.604 M1592.71 235.285 L1592.71 235.285 Z" fill="#000000" fill-rule="evenodd" fill-opacity="1" /><path clip-path="url(#clip550)" d="M1627.5 239.891 Q1626.78 239.475 1625.93 239.29 Q1625.09 239.081 1624.08 239.081 Q1620.47 239.081 1618.52 241.442 Q1616.6 243.78 1616.6 248.178 L1616.6 261.836 L1612.32 261.836 L1612.32 235.91 L1616.6 235.91 L1616.6 239.938 Q1617.94 237.577 1620.09 236.442 Q1622.25 235.285 1625.33 235.285 Q1625.77 235.285 1626.3 235.354 Q1626.83 235.401 1627.48 235.516 L1627.5 239.891 Z" fill="#000000" fill-rule="evenodd" fill-opacity="1" /><path clip-path="url(#clip550)" d="M1636.18 228.549 L1636.18 235.91 L1644.96 235.91 L1644.96 239.22 L1636.18 239.22 L1636.18 253.294 Q1636.18 256.465 1637.04 257.368 Q1637.92 258.271 1640.58 258.271 L1644.96 258.271 L1644.96 261.836 L1640.58 261.836 Q1635.65 261.836 1633.78 260.007 Q1631.9 258.155 1631.9 253.294 L1631.9 239.22 L1628.78 239.22 L1628.78 235.91 L1631.9 235.91 L1631.9 228.549 L1636.18 228.549 Z" fill="#000000" fill-rule="evenodd" fill-opacity="1" /><path clip-path="url(#clip550)" d="M1672.11 246.188 L1672.11 261.836 L1667.85 261.836 L1667.85 246.327 Q1667.85 242.646 1666.41 240.817 Q1664.98 238.989 1662.11 238.989 Q1658.66 238.989 1656.67 241.188 Q1654.68 243.387 1654.68 247.183 L1654.68 261.836 L1650.4 261.836 L1650.4 225.817 L1654.68 225.817 L1654.68 239.938 Q1656.21 237.6 1658.27 236.442 Q1660.35 235.285 1663.06 235.285 Q1667.52 235.285 1669.82 238.063 Q1672.11 240.817 1672.11 246.188 Z" fill="#000000" fill-rule="evenodd" fill-opacity="1" /><path clip-path="url(#clip550)" d="M1702.78 247.808 L1702.78 249.891 L1683.2 249.891 Q1683.47 254.289 1685.84 256.604 Q1688.22 258.896 1692.46 258.896 Q1694.91 258.896 1697.2 258.294 Q1699.52 257.692 1701.78 256.489 L1701.78 260.516 Q1699.49 261.488 1697.09 261.998 Q1694.68 262.507 1692.2 262.507 Q1686 262.507 1682.36 258.896 Q1678.75 255.285 1678.75 249.127 Q1678.75 242.762 1682.18 239.035 Q1685.63 235.285 1691.46 235.285 Q1696.69 235.285 1699.72 238.665 Q1702.78 242.021 1702.78 247.808 M1698.52 246.558 Q1698.47 243.063 1696.55 240.979 Q1694.65 238.896 1691.51 238.896 Q1687.94 238.896 1685.79 240.91 Q1683.66 242.924 1683.34 246.581 L1698.52 246.558 Z" fill="#000000" fill-rule="evenodd" fill-opacity="1" /><path clip-path="url(#clip550)" d="M1726.3 236.674 L1726.3 240.702 Q1724.49 239.776 1722.55 239.313 Q1720.6 238.85 1718.52 238.85 Q1715.35 238.85 1713.75 239.822 Q1712.18 240.794 1712.18 242.739 Q1712.18 244.22 1713.31 245.077 Q1714.45 245.91 1717.87 246.674 L1719.33 246.998 Q1723.87 247.97 1725.77 249.752 Q1727.69 251.512 1727.69 254.683 Q1727.69 258.294 1724.82 260.401 Q1721.97 262.507 1716.97 262.507 Q1714.89 262.507 1712.62 262.09 Q1710.37 261.697 1707.87 260.887 L1707.87 256.489 Q1710.23 257.715 1712.52 258.34 Q1714.82 258.942 1717.06 258.942 Q1720.07 258.942 1721.69 257.924 Q1723.31 256.882 1723.31 255.007 Q1723.31 253.271 1722.13 252.345 Q1720.97 251.419 1717.02 250.563 L1715.53 250.215 Q1711.58 249.382 1709.82 247.669 Q1708.06 245.933 1708.06 242.924 Q1708.06 239.266 1710.65 237.276 Q1713.24 235.285 1718.01 235.285 Q1720.37 235.285 1722.46 235.632 Q1724.54 235.979 1726.3 236.674 Z" fill="#000000" fill-rule="evenodd" fill-opacity="1" /><path clip-path="url(#clip550)" d="M1738.68 228.549 L1738.68 235.91 L1747.46 235.91 L1747.46 239.22 L1738.68 239.22 L1738.68 253.294 Q1738.68 256.465 1739.54 257.368 Q1740.42 258.271 1743.08 258.271 L1747.46 258.271 L1747.46 261.836 L1743.08 261.836 Q1738.15 261.836 1736.27 260.007 Q1734.4 258.155 1734.4 253.294 L1734.4 239.22 L1731.27 239.22 L1731.27 235.91 L1734.4 235.91 L1734.4 228.549 L1738.68 228.549 Z" fill="#000000" fill-rule="evenodd" fill-opacity="1" /><path clip-path="url(#clip550)" d="M1790.3 247.808 L1790.3 249.891 L1770.72 249.891 Q1771 254.289 1773.36 256.604 Q1775.74 258.896 1779.98 258.896 Q1782.43 258.896 1784.72 258.294 Q1787.04 257.692 1789.31 256.489 L1789.31 260.516 Q1787.02 261.488 1784.61 261.998 Q1782.2 262.507 1779.72 262.507 Q1773.52 262.507 1769.89 258.896 Q1766.27 255.285 1766.27 249.127 Q1766.27 242.762 1769.7 239.035 Q1773.15 235.285 1778.98 235.285 Q1784.21 235.285 1787.25 238.665 Q1790.3 242.021 1790.3 247.808 M1786.04 246.558 Q1786 243.063 1784.08 240.979 Q1782.18 238.896 1779.03 238.896 Q1775.46 238.896 1773.31 240.91 Q1771.18 242.924 1770.86 246.581 L1786.04 246.558 Z" fill="#000000" fill-rule="evenodd" fill-opacity="1" /><path clip-path="url(#clip550)" d="M1794.24 235.91 L1798.75 235.91 L1806.85 257.669 L1814.95 235.91 L1819.47 235.91 L1809.75 261.836 L1803.96 261.836 L1794.24 235.91 Z" fill="#000000" fill-rule="evenodd" fill-opacity="1" /><path clip-path="url(#clip550)" d="M1847.52 247.808 L1847.52 249.891 L1827.94 249.891 Q1828.22 254.289 1830.58 256.604 Q1832.96 258.896 1837.2 258.896 Q1839.65 258.896 1841.95 258.294 Q1844.26 257.692 1846.53 256.489 L1846.53 260.516 Q1844.24 261.488 1841.83 261.998 Q1839.42 262.507 1836.95 262.507 Q1830.74 262.507 1827.11 258.896 Q1823.5 255.285 1823.5 249.127 Q1823.5 242.762 1826.92 239.035 Q1830.37 235.285 1836.2 235.285 Q1841.44 235.285 1844.47 238.665 Q1847.52 242.021 1847.52 247.808 M1843.26 246.558 Q1843.22 243.063 1841.3 240.979 Q1839.4 238.896 1836.25 238.896 Q1832.69 238.896 1830.53 240.91 Q1828.4 242.924 1828.08 246.581 L1843.26 246.558 Z" fill="#000000" fill-rule="evenodd" fill-opacity="1" /><path clip-path="url(#clip550)" d="M1876.07 246.188 L1876.07 261.836 L1871.81 261.836 L1871.81 246.327 Q1871.81 242.646 1870.37 240.817 Q1868.94 238.989 1866.07 238.989 Q1862.62 238.989 1860.63 241.188 Q1858.64 243.387 1858.64 247.183 L1858.64 261.836 L1854.35 261.836 L1854.35 235.91 L1858.64 235.91 L1858.64 239.938 Q1860.16 237.6 1862.22 236.442 Q1864.31 235.285 1867.01 235.285 Q1871.48 235.285 1873.77 238.063 Q1876.07 240.817 1876.07 246.188 Z" fill="#000000" fill-rule="evenodd" fill-opacity="1" /><path clip-path="url(#clip550)" d="M1888.77 228.549 L1888.77 235.91 L1897.55 235.91 L1897.55 239.22 L1888.77 239.22 L1888.77 253.294 Q1888.77 256.465 1889.63 257.368 Q1890.51 258.271 1893.17 258.271 L1897.55 258.271 L1897.55 261.836 L1893.17 261.836 Q1888.24 261.836 1886.37 260.007 Q1884.49 258.155 1884.49 253.294 L1884.49 239.22 L1881.37 239.22 L1881.37 235.91 L1884.49 235.91 L1884.49 228.549 L1888.77 228.549 Z" fill="#000000" fill-rule="evenodd" fill-opacity="1" /><path clip-path="url(#clip550)" d="M1936.88 236.905 L1936.88 240.887 Q1935.07 239.891 1933.24 239.405 Q1931.44 238.896 1929.58 238.896 Q1925.44 238.896 1923.15 241.535 Q1920.86 244.151 1920.86 248.896 Q1920.86 253.641 1923.15 256.28 Q1925.44 258.896 1929.58 258.896 Q1931.44 258.896 1933.24 258.41 Q1935.07 257.901 1936.88 256.905 L1936.88 260.84 Q1935.09 261.674 1933.17 262.09 Q1931.27 262.507 1929.12 262.507 Q1923.26 262.507 1919.82 258.826 Q1916.37 255.146 1916.37 248.896 Q1916.37 242.553 1919.84 238.919 Q1923.33 235.285 1929.4 235.285 Q1931.37 235.285 1933.24 235.702 Q1935.12 236.095 1936.88 236.905 Z" fill="#000000" fill-rule="evenodd" fill-opacity="1" /><path clip-path="url(#clip550)" d="M1956.07 248.803 Q1950.9 248.803 1948.91 249.984 Q1946.92 251.164 1946.92 254.012 Q1946.92 256.28 1948.4 257.623 Q1949.91 258.942 1952.48 258.942 Q1956.02 258.942 1958.15 256.442 Q1960.3 253.919 1960.3 249.752 L1960.3 248.803 L1956.07 248.803 M1964.56 247.044 L1964.56 261.836 L1960.3 261.836 L1960.3 257.901 Q1958.84 260.262 1956.67 261.396 Q1954.49 262.507 1951.34 262.507 Q1947.36 262.507 1945 260.285 Q1942.66 258.039 1942.66 254.289 Q1942.66 249.914 1945.58 247.692 Q1948.52 245.47 1954.33 245.47 L1960.3 245.47 L1960.3 245.053 Q1960.3 242.114 1958.36 240.516 Q1956.44 238.896 1952.94 238.896 Q1950.72 238.896 1948.61 239.428 Q1946.5 239.961 1944.56 241.026 L1944.56 237.09 Q1946.9 236.188 1949.1 235.748 Q1951.3 235.285 1953.38 235.285 Q1959 235.285 1961.78 238.202 Q1964.56 241.118 1964.56 247.044 Z" fill="#000000" fill-rule="evenodd" fill-opacity="1" /><path clip-path="url(#clip550)" d="M1994.88 246.188 L1994.88 261.836 L1990.63 261.836 L1990.63 246.327 Q1990.63 242.646 1989.19 240.817 Q1987.75 238.989 1984.88 238.989 Q1981.44 238.989 1979.44 241.188 Q1977.45 243.387 1977.45 247.183 L1977.45 261.836 L1973.17 261.836 L1973.17 235.91 L1977.45 235.91 L1977.45 239.938 Q1978.98 237.6 1981.04 236.442 Q1983.13 235.285 1985.83 235.285 Q1990.3 235.285 1992.59 238.063 Q1994.88 240.817 1994.88 246.188 Z" fill="#000000" fill-rule="evenodd" fill-opacity="1" /><path clip-path="url(#clip550)" d="M2024.93 246.188 L2024.93 261.836 L2020.67 261.836 L2020.67 246.327 Q2020.67 242.646 2019.24 240.817 Q2017.8 238.989 2014.93 238.989 Q2011.48 238.989 2009.49 241.188 Q2007.5 243.387 2007.5 247.183 L2007.5 261.836 L2003.22 261.836 L2003.22 235.91 L2007.5 235.91 L2007.5 239.938 Q2009.03 237.6 2011.09 236.442 Q2013.17 235.285 2015.88 235.285 Q2020.35 235.285 2022.64 238.063 Q2024.93 240.817 2024.93 246.188 Z" fill="#000000" fill-rule="evenodd" fill-opacity="1" /><path clip-path="url(#clip550)" d="M2043.47 238.896 Q2040.05 238.896 2038.06 241.581 Q2036.06 244.243 2036.06 248.896 Q2036.06 253.549 2038.03 256.234 Q2040.02 258.896 2043.47 258.896 Q2046.87 258.896 2048.87 256.211 Q2050.86 253.526 2050.86 248.896 Q2050.86 244.29 2048.87 241.604 Q2046.87 238.896 2043.47 238.896 M2043.47 235.285 Q2049.03 235.285 2052.2 238.896 Q2055.37 242.507 2055.37 248.896 Q2055.37 255.262 2052.2 258.896 Q2049.03 262.507 2043.47 262.507 Q2037.89 262.507 2034.72 258.896 Q2031.57 255.262 2031.57 248.896 Q2031.57 242.507 2034.72 238.896 Q2037.89 235.285 2043.47 235.285 Z" fill="#000000" fill-rule="evenodd" fill-opacity="1" /><path clip-path="url(#clip550)" d="M2066.64 228.549 L2066.64 235.91 L2075.42 235.91 L2075.42 239.22 L2066.64 239.22 L2066.64 253.294 Q2066.64 256.465 2067.5 257.368 Q2068.38 258.271 2071.04 258.271 L2075.42 258.271 L2075.42 261.836 L2071.04 261.836 Q2066.11 261.836 2064.24 260.007 Q2062.36 258.155 2062.36 253.294 L2062.36 239.22 L2059.24 239.22 L2059.24 235.91 L2062.36 235.91 L2062.36 228.549 L2066.64 228.549 Z" fill="#000000" fill-rule="evenodd" fill-opacity="1" /><path clip-path="url(#clip550)" d="M2114.74 236.905 L2114.74 240.887 Q2112.94 239.891 2111.11 239.405 Q2109.31 238.896 2107.45 238.896 Q2103.31 238.896 2101.02 241.535 Q2098.73 244.151 2098.73 248.896 Q2098.73 253.641 2101.02 256.28 Q2103.31 258.896 2107.45 258.896 Q2109.31 258.896 2111.11 258.41 Q2112.94 257.901 2114.74 256.905 L2114.74 260.84 Q2112.96 261.674 2111.04 262.09 Q2109.14 262.507 2106.99 262.507 Q2101.13 262.507 2097.68 258.826 Q2094.24 255.146 2094.24 248.896 Q2094.24 242.553 2097.71 238.919 Q2101.2 235.285 2107.27 235.285 Q2109.24 235.285 2111.11 235.702 Q2112.99 236.095 2114.74 236.905 Z" fill="#000000" fill-rule="evenodd" fill-opacity="1" /><path clip-path="url(#clip550)" d="M2137.18 239.891 Q2136.46 239.475 2135.6 239.29 Q2134.77 239.081 2133.75 239.081 Q2130.14 239.081 2128.19 241.442 Q2126.27 243.78 2126.27 248.178 L2126.27 261.836 L2121.99 261.836 L2121.99 235.91 L2126.27 235.91 L2126.27 239.938 Q2127.62 237.577 2129.77 236.442 Q2131.92 235.285 2135 235.285 Q2135.44 235.285 2135.97 235.354 Q2136.5 235.401 2137.15 235.516 L2137.18 239.891 Z" fill="#000000" fill-rule="evenodd" fill-opacity="1" /><path clip-path="url(#clip550)" d="M2162.78 247.808 L2162.78 249.891 L2143.19 249.891 Q2143.47 254.289 2145.83 256.604 Q2148.22 258.896 2152.45 258.896 Q2154.91 258.896 2157.2 258.294 Q2159.51 257.692 2161.78 256.489 L2161.78 260.516 Q2159.49 261.488 2157.08 261.998 Q2154.68 262.507 2152.2 262.507 Q2145.99 262.507 2142.36 258.896 Q2138.75 255.285 2138.75 249.127 Q2138.75 242.762 2142.18 239.035 Q2145.62 235.285 2151.46 235.285 Q2156.69 235.285 2159.72 238.665 Q2162.78 242.021 2162.78 247.808 M2158.52 246.558 Q2158.47 243.063 2156.55 240.979 Q2154.65 238.896 2151.5 238.896 Q2147.94 238.896 2145.79 240.91 Q2143.66 242.924 2143.33 246.581 L2158.52 246.558 Z" fill="#000000" fill-rule="evenodd" fill-opacity="1" /><path clip-path="url(#clip550)" d="M2181.55 248.803 Q2176.39 248.803 2174.4 249.984 Q2172.41 251.164 2172.41 254.012 Q2172.41 256.28 2173.89 257.623 Q2175.39 258.942 2177.96 258.942 Q2181.5 258.942 2183.63 256.442 Q2185.79 253.919 2185.79 249.752 L2185.79 248.803 L2181.55 248.803 M2190.05 247.044 L2190.05 261.836 L2185.79 261.836 L2185.79 257.901 Q2184.33 260.262 2182.15 261.396 Q2179.98 262.507 2176.83 262.507 Q2172.85 262.507 2170.49 260.285 Q2168.15 258.039 2168.15 254.289 Q2168.15 249.914 2171.06 247.692 Q2174 245.47 2179.81 245.47 L2185.79 245.47 L2185.79 245.053 Q2185.79 242.114 2183.84 240.516 Q2181.92 238.896 2178.43 238.896 Q2176.2 238.896 2174.1 239.428 Q2171.99 239.961 2170.05 241.026 L2170.05 237.09 Q2172.38 236.188 2174.58 235.748 Q2176.78 235.285 2178.86 235.285 Q2184.49 235.285 2187.27 238.202 Q2190.05 241.118 2190.05 247.044 Z" fill="#000000" fill-rule="evenodd" fill-opacity="1" /><path clip-path="url(#clip550)" d="M2203.03 228.549 L2203.03 235.91 L2211.8 235.91 L2211.8 239.22 L2203.03 239.22 L2203.03 253.294 Q2203.03 256.465 2203.89 257.368 Q2204.77 258.271 2207.43 258.271 L2211.8 258.271 L2211.8 261.836 L2207.43 261.836 Q2202.5 261.836 2200.62 260.007 Q2198.75 258.155 2198.75 253.294 L2198.75 239.22 L2195.62 239.22 L2195.62 235.91 L2198.75 235.91 L2198.75 228.549 L2203.03 228.549 Z" fill="#000000" fill-rule="evenodd" fill-opacity="1" /><path clip-path="url(#clip550)" d="M2239.58 247.808 L2239.58 249.891 L2220 249.891 Q2220.28 254.289 2222.64 256.604 Q2225.02 258.896 2229.26 258.896 Q2231.71 258.896 2234 258.294 Q2236.32 257.692 2238.59 256.489 L2238.59 260.516 Q2236.3 261.488 2233.89 261.998 Q2231.48 262.507 2229 262.507 Q2222.8 262.507 2219.17 258.896 Q2215.55 255.285 2215.55 249.127 Q2215.55 242.762 2218.98 239.035 Q2222.43 235.285 2228.26 235.285 Q2233.49 235.285 2236.53 238.665 Q2239.58 242.021 2239.58 247.808 M2235.32 246.558 Q2235.28 243.063 2233.36 240.979 Q2231.46 238.896 2228.31 238.896 Q2224.74 238.896 2222.59 240.91 Q2220.46 242.924 2220.14 246.581 L2235.32 246.558 Z" fill="#000000" fill-rule="evenodd" fill-opacity="1" /><path clip-path="url(#clip550)" d="M1476.32 288.514 L1476.32 292.542 Q1474.52 291.616 1472.57 291.153 Q1470.63 290.69 1468.54 290.69 Q1465.37 290.69 1463.78 291.662 Q1462.2 292.634 1462.2 294.579 Q1462.2 296.06 1463.34 296.917 Q1464.47 297.75 1467.9 298.514 L1469.35 298.838 Q1473.89 299.81 1475.79 301.592 Q1477.71 303.352 1477.71 306.523 Q1477.71 310.134 1474.84 312.241 Q1471.99 314.347 1466.99 314.347 Q1464.91 314.347 1462.64 313.93 Q1460.4 313.537 1457.9 312.727 L1457.9 308.329 Q1460.26 309.555 1462.55 310.18 Q1464.84 310.782 1467.09 310.782 Q1470.1 310.782 1471.72 309.764 Q1473.34 308.722 1473.34 306.847 Q1473.34 305.111 1472.16 304.185 Q1471 303.259 1467.04 302.403 L1465.56 302.055 Q1461.6 301.222 1459.84 299.509 Q1458.08 297.773 1458.08 294.764 Q1458.08 291.106 1460.67 289.116 Q1463.27 287.125 1468.04 287.125 Q1470.4 287.125 1472.48 287.472 Q1474.56 287.819 1476.32 288.514 Z" fill="#000000" fill-rule="evenodd" fill-opacity="1" /><path clip-path="url(#clip550)" d="M1484.49 287.75 L1488.75 287.75 L1488.75 313.676 L1484.49 313.676 L1484.49 287.75 M1484.49 277.657 L1488.75 277.657 L1488.75 283.051 L1484.49 283.051 L1484.49 277.657 Z" fill="#000000" fill-rule="evenodd" fill-opacity="1" /><path clip-path="url(#clip550)" d="M1514.72 300.412 Q1514.72 295.782 1512.8 293.236 Q1510.91 290.69 1507.46 290.69 Q1504.03 290.69 1502.11 293.236 Q1500.21 295.782 1500.21 300.412 Q1500.21 305.018 1502.11 307.565 Q1504.03 310.111 1507.46 310.111 Q1510.91 310.111 1512.8 307.565 Q1514.72 305.018 1514.72 300.412 M1518.98 310.458 Q1518.98 317.078 1516.04 320.296 Q1513.1 323.537 1507.04 323.537 Q1504.79 323.537 1502.8 323.19 Q1500.81 322.865 1498.94 322.171 L1498.94 318.028 Q1500.81 319.046 1502.64 319.532 Q1504.47 320.018 1506.37 320.018 Q1510.56 320.018 1512.64 317.819 Q1514.72 315.643 1514.72 311.222 L1514.72 309.116 Q1513.41 311.407 1511.35 312.541 Q1509.29 313.676 1506.41 313.676 Q1501.65 313.676 1498.73 310.041 Q1495.81 306.407 1495.81 300.412 Q1495.81 294.393 1498.73 290.759 Q1501.65 287.125 1506.41 287.125 Q1509.29 287.125 1511.35 288.259 Q1513.41 289.393 1514.72 291.685 L1514.72 287.75 L1518.98 287.75 L1518.98 310.458 Z" fill="#000000" fill-rule="evenodd" fill-opacity="1" /><path clip-path="url(#clip550)" d="M1549.31 298.028 L1549.31 313.676 L1545.05 313.676 L1545.05 298.167 Q1545.05 294.486 1543.61 292.657 Q1542.18 290.829 1539.31 290.829 Q1535.86 290.829 1533.87 293.028 Q1531.88 295.227 1531.88 299.023 L1531.88 313.676 L1527.6 313.676 L1527.6 287.75 L1531.88 287.75 L1531.88 291.778 Q1533.41 289.44 1535.47 288.282 Q1537.55 287.125 1540.26 287.125 Q1544.72 287.125 1547.02 289.903 Q1549.31 292.657 1549.31 298.028 Z" fill="#000000" fill-rule="evenodd" fill-opacity="1" /><path clip-path="url(#clip550)" d="M1569.59 300.643 Q1564.42 300.643 1562.43 301.824 Q1560.44 303.004 1560.44 305.852 Q1560.44 308.12 1561.92 309.463 Q1563.43 310.782 1566 310.782 Q1569.54 310.782 1571.67 308.282 Q1573.82 305.759 1573.82 301.592 L1573.82 300.643 L1569.59 300.643 M1578.08 298.884 L1578.08 313.676 L1573.82 313.676 L1573.82 309.741 Q1572.36 312.102 1570.19 313.236 Q1568.01 314.347 1564.86 314.347 Q1560.88 314.347 1558.52 312.125 Q1556.18 309.879 1556.18 306.129 Q1556.18 301.754 1559.1 299.532 Q1562.04 297.31 1567.85 297.31 L1573.82 297.31 L1573.82 296.893 Q1573.82 293.954 1571.88 292.356 Q1569.96 290.736 1566.46 290.736 Q1564.24 290.736 1562.13 291.268 Q1560.03 291.801 1558.08 292.866 L1558.08 288.93 Q1560.42 288.028 1562.62 287.588 Q1564.82 287.125 1566.9 287.125 Q1572.53 287.125 1575.3 290.042 Q1578.08 292.958 1578.08 298.884 Z" fill="#000000" fill-rule="evenodd" fill-opacity="1" /><path clip-path="url(#clip550)" d="M1586.85 277.657 L1591.11 277.657 L1591.11 313.676 L1586.85 313.676 L1586.85 277.657 Z" fill="#000000" fill-rule="evenodd" fill-opacity="1" /><path clip-path="url(#clip550)" d="M1616.55 288.514 L1616.55 292.542 Q1614.75 291.616 1612.8 291.153 Q1610.86 290.69 1608.78 290.69 Q1605.6 290.69 1604.01 291.662 Q1602.43 292.634 1602.43 294.579 Q1602.43 296.06 1603.57 296.917 Q1604.7 297.75 1608.13 298.514 L1609.59 298.838 Q1614.12 299.81 1616.02 301.592 Q1617.94 303.352 1617.94 306.523 Q1617.94 310.134 1615.07 312.241 Q1612.22 314.347 1607.22 314.347 Q1605.14 314.347 1602.87 313.93 Q1600.63 313.537 1598.13 312.727 L1598.13 308.329 Q1600.49 309.555 1602.78 310.18 Q1605.07 310.782 1607.32 310.782 Q1610.33 310.782 1611.95 309.764 Q1613.57 308.722 1613.57 306.847 Q1613.57 305.111 1612.39 304.185 Q1611.23 303.259 1607.27 302.403 L1605.79 302.055 Q1601.83 301.222 1600.07 299.509 Q1598.31 297.773 1598.31 294.764 Q1598.31 291.106 1600.9 289.116 Q1603.5 287.125 1608.27 287.125 Q1610.63 287.125 1612.71 287.472 Q1614.79 287.819 1616.55 288.514 Z" fill="#000000" fill-rule="evenodd" fill-opacity="1" /><path clip-path="url(#clip550)" d="M1639.79 277.657 L1644.05 277.657 L1644.05 313.676 L1639.79 313.676 L1639.79 277.657 Z" fill="#000000" fill-rule="evenodd" fill-opacity="1" /><path clip-path="url(#clip550)" d="M1663.01 290.736 Q1659.59 290.736 1657.59 293.421 Q1655.6 296.083 1655.6 300.736 Q1655.6 305.389 1657.57 308.074 Q1659.56 310.736 1663.01 310.736 Q1666.41 310.736 1668.4 308.051 Q1670.4 305.366 1670.4 300.736 Q1670.4 296.13 1668.4 293.444 Q1666.41 290.736 1663.01 290.736 M1663.01 287.125 Q1668.57 287.125 1671.74 290.736 Q1674.91 294.347 1674.91 300.736 Q1674.91 307.102 1671.74 310.736 Q1668.57 314.347 1663.01 314.347 Q1657.43 314.347 1654.26 310.736 Q1651.11 307.102 1651.11 300.736 Q1651.11 294.347 1654.26 290.736 Q1657.43 287.125 1663.01 287.125 Z" fill="#000000" fill-rule="evenodd" fill-opacity="1" /><path clip-path="url(#clip550)" d="M1681.53 303.444 L1681.53 287.75 L1685.79 287.75 L1685.79 303.282 Q1685.79 306.963 1687.22 308.815 Q1688.66 310.643 1691.53 310.643 Q1694.98 310.643 1696.97 308.444 Q1698.98 306.245 1698.98 302.449 L1698.98 287.75 L1703.24 287.75 L1703.24 313.676 L1698.98 313.676 L1698.98 309.694 Q1697.43 312.055 1695.37 313.213 Q1693.34 314.347 1690.63 314.347 Q1686.16 314.347 1683.84 311.569 Q1681.53 308.791 1681.53 303.444 M1692.25 287.125 L1692.25 287.125 Z" fill="#000000" fill-rule="evenodd" fill-opacity="1" /><path clip-path="url(#clip550)" d="M1729.08 291.685 L1729.08 277.657 L1733.33 277.657 L1733.33 313.676 L1729.08 313.676 L1729.08 309.787 Q1727.73 312.102 1725.67 313.236 Q1723.64 314.347 1720.77 314.347 Q1716.07 314.347 1713.1 310.597 Q1710.16 306.847 1710.16 300.736 Q1710.16 294.625 1713.1 290.875 Q1716.07 287.125 1720.77 287.125 Q1723.64 287.125 1725.67 288.259 Q1727.73 289.37 1729.08 291.685 M1714.56 300.736 Q1714.56 305.435 1716.48 308.12 Q1718.43 310.782 1721.81 310.782 Q1725.19 310.782 1727.13 308.12 Q1729.08 305.435 1729.08 300.736 Q1729.08 296.037 1727.13 293.375 Q1725.19 290.69 1721.81 290.69 Q1718.43 290.69 1716.48 293.375 Q1714.56 296.037 1714.56 300.736 Z" fill="#000000" fill-rule="evenodd" fill-opacity="1" /><path clip-path="url(#clip550)" d="M1764.28 299.648 L1764.28 301.731 L1744.7 301.731 Q1744.98 306.129 1747.34 308.444 Q1749.72 310.736 1753.96 310.736 Q1756.41 310.736 1758.71 310.134 Q1761.02 309.532 1763.29 308.329 L1763.29 312.356 Q1761 313.328 1758.59 313.838 Q1756.18 314.347 1753.71 314.347 Q1747.5 314.347 1743.87 310.736 Q1740.26 307.125 1740.26 300.967 Q1740.26 294.602 1743.68 290.875 Q1747.13 287.125 1752.96 287.125 Q1758.2 287.125 1761.23 290.505 Q1764.28 293.861 1764.28 299.648 M1760.02 298.398 Q1759.98 294.903 1758.06 292.819 Q1756.16 290.736 1753.01 290.736 Q1749.45 290.736 1747.29 292.75 Q1745.16 294.764 1744.84 298.421 L1760.02 298.398 Z" fill="#000000" fill-rule="evenodd" fill-opacity="1" /><path clip-path="url(#clip550)" d="M1786.3 291.731 Q1785.58 291.315 1784.72 291.13 Q1783.89 290.921 1782.87 290.921 Q1779.26 290.921 1777.32 293.282 Q1775.39 295.62 1775.39 300.018 L1775.39 313.676 L1771.11 313.676 L1771.11 287.75 L1775.39 287.75 L1775.39 291.778 Q1776.74 289.417 1778.89 288.282 Q1781.04 287.125 1784.12 287.125 Q1784.56 287.125 1785.09 287.194 Q1785.63 287.241 1786.27 287.356 L1786.3 291.731 Z" fill="#000000" fill-rule="evenodd" fill-opacity="1" /><path clip-path="url(#clip550)" d="M1810.05 280.389 L1810.05 287.75 L1818.82 287.75 L1818.82 291.06 L1810.05 291.06 L1810.05 305.134 Q1810.05 308.305 1810.9 309.208 Q1811.78 310.111 1814.45 310.111 L1818.82 310.111 L1818.82 313.676 L1814.45 313.676 Q1809.51 313.676 1807.64 311.847 Q1805.76 309.995 1805.76 305.134 L1805.76 291.06 L1802.64 291.06 L1802.64 287.75 L1805.76 287.75 L1805.76 280.389 L1810.05 280.389 Z" fill="#000000" fill-rule="evenodd" fill-opacity="1" /><path clip-path="url(#clip550)" d="M1845.97 298.028 L1845.97 313.676 L1841.71 313.676 L1841.71 298.167 Q1841.71 294.486 1840.28 292.657 Q1838.84 290.829 1835.97 290.829 Q1832.52 290.829 1830.53 293.028 Q1828.54 295.227 1828.54 299.023 L1828.54 313.676 L1824.26 313.676 L1824.26 277.657 L1828.54 277.657 L1828.54 291.778 Q1830.07 289.44 1832.13 288.282 Q1834.21 287.125 1836.92 287.125 Q1841.39 287.125 1843.68 289.903 Q1845.97 292.657 1845.97 298.028 Z" fill="#000000" fill-rule="evenodd" fill-opacity="1" /><path clip-path="url(#clip550)" d="M1866.25 300.643 Q1861.09 300.643 1859.1 301.824 Q1857.11 303.004 1857.11 305.852 Q1857.11 308.12 1858.59 309.463 Q1860.09 310.782 1862.66 310.782 Q1866.2 310.782 1868.33 308.282 Q1870.49 305.759 1870.49 301.592 L1870.49 300.643 L1866.25 300.643 M1874.75 298.884 L1874.75 313.676 L1870.49 313.676 L1870.49 309.741 Q1869.03 312.102 1866.85 313.236 Q1864.68 314.347 1861.53 314.347 Q1857.55 314.347 1855.19 312.125 Q1852.85 309.879 1852.85 306.129 Q1852.85 301.754 1855.76 299.532 Q1858.7 297.31 1864.51 297.31 L1870.49 297.31 L1870.49 296.893 Q1870.49 293.954 1868.54 292.356 Q1866.62 290.736 1863.13 290.736 Q1860.9 290.736 1858.8 291.268 Q1856.69 291.801 1854.75 292.866 L1854.75 288.93 Q1857.08 288.028 1859.28 287.588 Q1861.48 287.125 1863.57 287.125 Q1869.19 287.125 1871.97 290.042 Q1874.75 292.958 1874.75 298.884 Z" fill="#000000" fill-rule="evenodd" fill-opacity="1" /><path clip-path="url(#clip550)" d="M1905.07 298.028 L1905.07 313.676 L1900.81 313.676 L1900.81 298.167 Q1900.81 294.486 1899.38 292.657 Q1897.94 290.829 1895.07 290.829 Q1891.62 290.829 1889.63 293.028 Q1887.64 295.227 1887.64 299.023 L1887.64 313.676 L1883.36 313.676 L1883.36 287.75 L1887.64 287.75 L1887.64 291.778 Q1889.17 289.44 1891.23 288.282 Q1893.31 287.125 1896.02 287.125 Q1900.49 287.125 1902.78 289.903 Q1905.07 292.657 1905.07 298.028 Z" fill="#000000" fill-rule="evenodd" fill-opacity="1" /><path clip-path="url(#clip550)" d="M1932.85 280.389 L1932.85 287.75 L1941.62 287.75 L1941.62 291.06 L1932.85 291.06 L1932.85 305.134 Q1932.85 308.305 1933.7 309.208 Q1934.58 310.111 1937.25 310.111 L1941.62 310.111 L1941.62 313.676 L1937.25 313.676 Q1932.32 313.676 1930.44 311.847 Q1928.57 309.995 1928.57 305.134 L1928.57 291.06 L1925.44 291.06 L1925.44 287.75 L1928.57 287.75 L1928.57 280.389 L1932.85 280.389 Z" fill="#000000" fill-rule="evenodd" fill-opacity="1" /><path clip-path="url(#clip550)" d="M1968.77 298.028 L1968.77 313.676 L1964.51 313.676 L1964.51 298.167 Q1964.51 294.486 1963.08 292.657 Q1961.64 290.829 1958.77 290.829 Q1955.32 290.829 1953.33 293.028 Q1951.34 295.227 1951.34 299.023 L1951.34 313.676 L1947.06 313.676 L1947.06 277.657 L1951.34 277.657 L1951.34 291.778 Q1952.87 289.44 1954.93 288.282 Q1957.01 287.125 1959.72 287.125 Q1964.19 287.125 1966.48 289.903 Q1968.77 292.657 1968.77 298.028 Z" fill="#000000" fill-rule="evenodd" fill-opacity="1" /><path clip-path="url(#clip550)" d="M1977.27 287.75 L1981.53 287.75 L1981.53 313.676 L1977.27 313.676 L1977.27 287.75 M1977.27 277.657 L1981.53 277.657 L1981.53 283.051 L1977.27 283.051 L1977.27 277.657 Z" fill="#000000" fill-rule="evenodd" fill-opacity="1" /><path clip-path="url(#clip550)" d="M2006.97 288.514 L2006.97 292.542 Q2005.16 291.616 2003.22 291.153 Q2001.27 290.69 1999.19 290.69 Q1996.02 290.69 1994.42 291.662 Q1992.85 292.634 1992.85 294.579 Q1992.85 296.06 1993.98 296.917 Q1995.12 297.75 1998.54 298.514 L2000 298.838 Q2004.54 299.81 2006.44 301.592 Q2008.36 303.352 2008.36 306.523 Q2008.36 310.134 2005.49 312.241 Q2002.64 314.347 1997.64 314.347 Q1995.56 314.347 1993.29 313.93 Q1991.04 313.537 1988.54 312.727 L1988.54 308.329 Q1990.9 309.555 1993.19 310.18 Q1995.49 310.782 1997.73 310.782 Q2000.74 310.782 2002.36 309.764 Q2003.98 308.722 2003.98 306.847 Q2003.98 305.111 2002.8 304.185 Q2001.64 303.259 1997.69 302.403 L1996.2 302.055 Q1992.25 301.222 1990.49 299.509 Q1988.73 297.773 1988.73 294.764 Q1988.73 291.106 1991.32 289.116 Q1993.91 287.125 1998.68 287.125 Q2001.04 287.125 2003.13 287.472 Q2005.21 287.819 2006.97 288.514 Z" fill="#000000" fill-rule="evenodd" fill-opacity="1" /><polyline clip-path="url(#clip550)" style="stroke:#008000; stroke-linecap:round; stroke-linejoin:round; stroke-width:8; stroke-opacity:1; fill:none" points="1290.63,374.156 1434,374.156 "/>
<path clip-path="url(#clip550)" d="M1457.9 369.451 L1459.47 359.59 L1460.66 359.59 Q1460.8 360.175 1461.04 360.433 Q1461.29 360.691 1462.65 360.902 Q1464.03 361.112 1466.82 361.112 L1478.46 361.112 Q1478.46 362.213 1478.04 362.799 L1471.55 371.91 Q1469.49 374.791 1468.58 380.108 Q1468.04 383.668 1468.06 387.978 L1468.06 390.414 Q1468.06 393.061 1465.84 393.061 Q1463.63 393.061 1463.63 390.414 Q1463.63 381.256 1469.54 372.379 Q1470.17 371.465 1472.49 368.209 Q1474.83 364.954 1474.92 364.813 L1464.99 364.813 Q1460.64 364.813 1460.29 365.094 Q1459.82 365.516 1459.09 369.451 L1457.9 369.451 Z" fill="#000000" fill-rule="evenodd" fill-opacity="1" /><path clip-path="url(#clip550)" d="M1477.57 384.277 Q1477.57 382.848 1478.34 382.31 Q1479.12 381.748 1479.94 381.748 Q1481.04 381.748 1481.67 382.45 Q1482.33 383.129 1482.33 384.09 Q1482.33 385.05 1481.67 385.753 Q1481.04 386.432 1479.94 386.432 Q1479.4 386.432 1479.12 386.338 Q1479.75 388.54 1481.67 390.133 Q1483.61 391.726 1486.17 391.726 Q1489.38 391.726 1491.3 388.61 Q1492.44 386.596 1492.44 382.029 Q1492.44 378 1491.58 375.986 Q1490.24 372.917 1487.5 372.917 Q1483.61 372.917 1481.32 376.267 Q1481.04 376.688 1480.71 376.712 Q1480.24 376.712 1480.12 376.454 Q1480.03 376.173 1480.03 375.447 L1480.03 361.253 Q1480.03 360.105 1480.5 360.105 Q1480.69 360.105 1481.08 360.246 Q1484.11 361.581 1487.45 361.604 Q1490.9 361.604 1493.99 360.199 Q1494.22 360.058 1494.36 360.058 Q1494.83 360.058 1494.86 360.597 Q1494.86 360.784 1494.46 361.347 Q1494.08 361.885 1493.26 362.611 Q1492.44 363.314 1491.39 363.993 Q1490.34 364.673 1488.79 365.141 Q1487.27 365.586 1485.58 365.586 Q1483.57 365.586 1481.51 364.954 L1481.51 374.299 Q1483.99 371.863 1487.6 371.863 Q1491.44 371.863 1494.08 374.955 Q1496.73 378.047 1496.73 382.357 Q1496.73 386.877 1493.59 389.969 Q1490.48 393.061 1486.26 393.061 Q1482.42 393.061 1479.98 390.32 Q1477.57 387.58 1477.57 384.277 Z" fill="#000000" fill-rule="evenodd" fill-opacity="1" /><path clip-path="url(#clip550)" d="M1501.51 376.665 Q1501.51 369.615 1503.29 365.773 Q1505.78 360.058 1511.63 360.058 Q1512.87 360.058 1514.16 360.41 Q1515.47 360.738 1517.11 362.026 Q1518.77 363.314 1519.78 365.422 Q1521.7 369.498 1521.7 376.665 Q1521.7 383.668 1519.92 387.486 Q1517.32 393.061 1511.58 393.061 Q1509.43 393.061 1507.23 391.96 Q1505.05 390.859 1503.67 388.212 Q1501.51 384.254 1501.51 376.665 M1505.49 376.079 Q1505.49 383.317 1506.01 386.198 Q1506.6 389.313 1508.19 390.671 Q1509.8 392.007 1511.58 392.007 Q1513.5 392.007 1515.1 390.578 Q1516.71 389.126 1517.21 386.01 Q1517.74 382.942 1517.72 376.079 Q1517.72 369.404 1517.25 366.734 Q1516.62 363.619 1514.93 362.377 Q1513.27 361.112 1511.58 361.112 Q1510.95 361.112 1510.27 361.3 Q1509.62 361.487 1508.66 362.026 Q1507.7 362.565 1506.95 363.9 Q1506.22 365.235 1505.87 367.249 Q1505.49 369.849 1505.49 376.079 Z" fill="#000000" fill-rule="evenodd" fill-opacity="1" /><path clip-path="url(#clip550)" d="M1525.45 376.665 Q1525.45 369.615 1527.23 365.773 Q1529.72 360.058 1535.57 360.058 Q1536.81 360.058 1538.1 360.41 Q1539.41 360.738 1541.05 362.026 Q1542.72 363.314 1543.72 365.422 Q1545.64 369.498 1545.64 376.665 Q1545.64 383.668 1543.86 387.486 Q1541.26 393.061 1535.53 393.061 Q1533.37 393.061 1531.17 391.96 Q1528.99 390.859 1527.61 388.212 Q1525.45 384.254 1525.45 376.665 M1529.44 376.079 Q1529.44 383.317 1529.95 386.198 Q1530.54 389.313 1532.13 390.671 Q1533.75 392.007 1535.53 392.007 Q1537.45 392.007 1539.04 390.578 Q1540.66 389.126 1541.15 386.01 Q1541.69 382.942 1541.66 376.079 Q1541.66 369.404 1541.19 366.734 Q1540.56 363.619 1538.88 362.377 Q1537.21 361.112 1535.53 361.112 Q1534.89 361.112 1534.21 361.3 Q1533.56 361.487 1532.6 362.026 Q1531.64 362.565 1530.89 363.9 Q1530.16 365.235 1529.81 367.249 Q1529.44 369.849 1529.44 376.079 Z" fill="#000000" fill-rule="evenodd" fill-opacity="1" /><path clip-path="url(#clip550)" d="M1549.93 391.234 Q1549.2 390.461 1549.2 389.454 Q1549.2 388.446 1549.93 387.72 Q1550.66 386.971 1551.76 386.971 Q1552.81 386.971 1553.51 387.673 Q1554.24 388.353 1554.24 389.477 Q1554.24 390.578 1553.47 391.304 Q1552.72 392.007 1551.76 392.007 Q1550.66 392.007 1549.93 391.234 Z" fill="#000000" fill-rule="evenodd" fill-opacity="1" /><path clip-path="url(#clip550)" d="M1562.4 376.665 Q1562.4 369.615 1564.18 365.773 Q1566.66 360.058 1572.52 360.058 Q1573.76 360.058 1575.05 360.41 Q1576.36 360.738 1578 362.026 Q1579.66 363.314 1580.67 365.422 Q1582.59 369.498 1582.59 376.665 Q1582.59 383.668 1580.81 387.486 Q1578.21 393.061 1572.47 393.061 Q1570.32 393.061 1568.12 391.96 Q1565.94 390.859 1564.56 388.212 Q1562.4 384.254 1562.4 376.665 M1566.38 376.079 Q1566.38 383.317 1566.9 386.198 Q1567.48 389.313 1569.08 390.671 Q1570.69 392.007 1572.47 392.007 Q1574.39 392.007 1575.99 390.578 Q1577.6 389.126 1578.09 386.01 Q1578.63 382.942 1578.61 376.079 Q1578.61 369.404 1578.14 366.734 Q1577.51 363.619 1575.82 362.377 Q1574.16 361.112 1572.47 361.112 Q1571.84 361.112 1571.16 361.3 Q1570.51 361.487 1569.55 362.026 Q1568.59 362.565 1567.84 363.9 Q1567.11 365.235 1566.76 367.249 Q1566.38 369.849 1566.38 376.079 Z" fill="#000000" fill-rule="evenodd" fill-opacity="1" /><path clip-path="url(#clip550)" d="M1618.36 373.924 Q1618.36 375.166 1617.54 375.962 Q1616.74 376.759 1615.71 376.759 Q1614.82 376.759 1614.35 376.243 Q1613.88 375.728 1613.88 375.072 Q1613.88 374.135 1614.61 373.362 Q1615.34 372.589 1616.39 372.425 Q1615.62 371.863 1614.38 371.863 Q1612.34 371.863 1610.53 373.433 Q1609.74 374.159 1608.87 375.494 Q1608 376.805 1607.84 377.368 L1606.32 383.621 Q1606.18 384.324 1605.31 387.697 Q1604.47 391.046 1604.4 391.187 Q1604.16 391.843 1603.65 392.194 Q1603.13 392.545 1602.62 392.545 Q1602.03 392.545 1601.63 392.194 Q1601.24 391.843 1601.24 391.234 Q1601.24 391.14 1601.31 390.789 Q1601.38 390.437 1601.49 389.945 Q1601.61 389.454 1601.66 389.172 L1604.44 378.094 Q1604.96 376.079 1605.08 375.447 Q1605.22 374.791 1605.22 374.065 Q1605.22 372.8 1604.82 372.332 Q1604.42 371.863 1603.72 371.863 Q1602.5 371.863 1601.7 373.315 Q1600.91 374.768 1600.23 377.578 Q1600.02 378.351 1599.88 378.515 Q1599.76 378.679 1599.41 378.679 Q1598.82 378.656 1598.82 378.187 Q1598.82 378.07 1599.01 377.321 Q1599.2 376.548 1599.55 375.423 Q1599.92 374.276 1600.32 373.55 Q1600.56 373.058 1600.77 372.73 Q1600.98 372.402 1601.4 371.887 Q1601.82 371.371 1602.45 371.09 Q1603.09 370.809 1603.86 370.809 Q1605.54 370.809 1606.74 371.84 Q1607.96 372.87 1608.24 374.487 Q1608.82 373.643 1609.55 372.917 Q1610.28 372.168 1611.61 371.489 Q1612.95 370.809 1614.38 370.809 Q1616.16 370.809 1617.26 371.723 Q1618.36 372.613 1618.36 373.924 Z" fill="#000000" fill-rule="evenodd" fill-opacity="1" /><path clip-path="url(#clip550)" d="M1645.44 368.908 Q1645.63 369.105 1645.63 369.384 Q1645.63 369.662 1645.44 369.859 Q1645.24 370.056 1644.96 370.056 L1623.94 370.056 Q1623.66 370.056 1623.47 369.859 Q1623.27 369.662 1623.27 369.384 Q1623.27 369.105 1623.47 368.908 Q1623.66 368.711 1623.94 368.711 L1644.96 368.711 Q1645.24 368.711 1645.44 368.908 Z" fill="#000000" fill-rule="evenodd" fill-opacity="1" /><path clip-path="url(#clip550)" d="M1649.13 372.237 L1649.13 371.204 L1659.45 355.447 Q1659.71 355.037 1660.12 355.054 Q1660.5 355.054 1660.58 355.201 Q1660.66 355.349 1660.66 355.923 L1660.66 371.204 L1664.02 371.204 L1664.02 372.237 L1660.66 372.237 L1660.66 375.155 Q1660.66 376.122 1661.05 376.434 Q1661.46 376.745 1663.2 376.745 L1663.91 376.745 L1663.91 377.778 Q1662.53 377.68 1659.35 377.68 Q1656.18 377.68 1654.81 377.778 L1654.81 376.745 L1655.51 376.745 Q1657.25 376.745 1657.66 376.45 Q1658.07 376.139 1658.07 375.155 L1658.07 372.237 L1649.13 372.237 M1650.08 371.204 L1658.27 371.204 L1658.27 358.677 L1650.08 371.204 Z" fill="#000000" fill-rule="evenodd" fill-opacity="1" /><polyline clip-path="url(#clip550)" style="stroke:#008000; stroke-linecap:round; stroke-linejoin:round; stroke-width:8; stroke-opacity:1; fill:none" points="1290.63,477.836 1434,477.836 "/>
<path clip-path="url(#clip550)" d="M1457.9 470.803 L1459.47 460.942 L1460.66 460.942 Q1460.8 461.528 1461.04 461.786 Q1461.29 462.043 1462.65 462.254 Q1464.03 462.465 1466.82 462.465 L1478.46 462.465 Q1478.46 463.566 1478.04 464.151 L1471.55 473.263 Q1469.49 476.144 1468.58 481.461 Q1468.04 485.021 1468.06 489.33 L1468.06 491.766 Q1468.06 494.413 1465.84 494.413 Q1463.63 494.413 1463.63 491.766 Q1463.63 482.608 1469.54 473.731 Q1470.17 472.818 1472.49 469.562 Q1474.83 466.306 1474.92 466.166 L1464.99 466.166 Q1460.64 466.166 1460.29 466.447 Q1459.82 466.868 1459.09 470.803 L1457.9 470.803 Z" fill="#000000" fill-rule="evenodd" fill-opacity="1" /><path clip-path="url(#clip550)" d="M1477.57 485.63 Q1477.57 484.201 1478.34 483.662 Q1479.12 483.1 1479.94 483.1 Q1481.04 483.1 1481.67 483.803 Q1482.33 484.482 1482.33 485.442 Q1482.33 486.403 1481.67 487.105 Q1481.04 487.785 1479.94 487.785 Q1479.4 487.785 1479.12 487.691 Q1479.75 489.893 1481.67 491.485 Q1483.61 493.078 1486.17 493.078 Q1489.38 493.078 1491.3 489.963 Q1492.44 487.949 1492.44 483.381 Q1492.44 479.353 1491.58 477.338 Q1490.24 474.27 1487.5 474.27 Q1483.61 474.27 1481.32 477.619 Q1481.04 478.041 1480.71 478.064 Q1480.24 478.064 1480.12 477.807 Q1480.03 477.526 1480.03 476.799 L1480.03 462.605 Q1480.03 461.458 1480.5 461.458 Q1480.69 461.458 1481.08 461.598 Q1484.11 462.933 1487.45 462.957 Q1490.9 462.957 1493.99 461.551 Q1494.22 461.411 1494.36 461.411 Q1494.83 461.411 1494.86 461.95 Q1494.86 462.137 1494.46 462.699 Q1494.08 463.238 1493.26 463.964 Q1492.44 464.667 1491.39 465.346 Q1490.34 466.025 1488.79 466.494 Q1487.27 466.939 1485.58 466.939 Q1483.57 466.939 1481.51 466.306 L1481.51 475.652 Q1483.99 473.216 1487.6 473.216 Q1491.44 473.216 1494.08 476.308 Q1496.73 479.399 1496.73 483.709 Q1496.73 488.23 1493.59 491.321 Q1490.48 494.413 1486.26 494.413 Q1482.42 494.413 1479.98 491.673 Q1477.57 488.932 1477.57 485.63 Z" fill="#000000" fill-rule="evenodd" fill-opacity="1" /><path clip-path="url(#clip550)" d="M1501.51 478.017 Q1501.51 470.967 1503.29 467.126 Q1505.78 461.411 1511.63 461.411 Q1512.87 461.411 1514.16 461.762 Q1515.47 462.09 1517.11 463.378 Q1518.77 464.667 1519.78 466.775 Q1521.7 470.85 1521.7 478.017 Q1521.7 485.021 1519.92 488.839 Q1517.32 494.413 1511.58 494.413 Q1509.43 494.413 1507.23 493.312 Q1505.05 492.211 1503.67 489.565 Q1501.51 485.606 1501.51 478.017 M1505.49 477.432 Q1505.49 484.669 1506.01 487.55 Q1506.6 490.666 1508.19 492.024 Q1509.8 493.359 1511.58 493.359 Q1513.5 493.359 1515.1 491.93 Q1516.71 490.478 1517.21 487.363 Q1517.74 484.295 1517.72 477.432 Q1517.72 470.756 1517.25 468.086 Q1516.62 464.971 1514.93 463.73 Q1513.27 462.465 1511.58 462.465 Q1510.95 462.465 1510.27 462.652 Q1509.62 462.84 1508.66 463.378 Q1507.7 463.917 1506.95 465.252 Q1506.22 466.587 1505.87 468.602 Q1505.49 471.202 1505.49 477.432 Z" fill="#000000" fill-rule="evenodd" fill-opacity="1" /><path clip-path="url(#clip550)" d="M1525.45 478.017 Q1525.45 470.967 1527.23 467.126 Q1529.72 461.411 1535.57 461.411 Q1536.81 461.411 1538.1 461.762 Q1539.41 462.09 1541.05 463.378 Q1542.72 464.667 1543.72 466.775 Q1545.64 470.85 1545.64 478.017 Q1545.64 485.021 1543.86 488.839 Q1541.26 494.413 1535.53 494.413 Q1533.37 494.413 1531.17 493.312 Q1528.99 492.211 1527.61 489.565 Q1525.45 485.606 1525.45 478.017 M1529.44 477.432 Q1529.44 484.669 1529.95 487.55 Q1530.54 490.666 1532.13 492.024 Q1533.75 493.359 1535.53 493.359 Q1537.45 493.359 1539.04 491.93 Q1540.66 490.478 1541.15 487.363 Q1541.69 484.295 1541.66 477.432 Q1541.66 470.756 1541.19 468.086 Q1540.56 464.971 1538.88 463.73 Q1537.21 462.465 1535.53 462.465 Q1534.89 462.465 1534.21 462.652 Q1533.56 462.84 1532.6 463.378 Q1531.64 463.917 1530.89 465.252 Q1530.16 466.587 1529.81 468.602 Q1529.44 471.202 1529.44 477.432 Z" fill="#000000" fill-rule="evenodd" fill-opacity="1" /><path clip-path="url(#clip550)" d="M1549.93 492.586 Q1549.2 491.813 1549.2 490.806 Q1549.2 489.799 1549.93 489.073 Q1550.66 488.323 1551.76 488.323 Q1552.81 488.323 1553.51 489.026 Q1554.24 489.705 1554.24 490.83 Q1554.24 491.93 1553.47 492.656 Q1552.72 493.359 1551.76 493.359 Q1550.66 493.359 1549.93 492.586 Z" fill="#000000" fill-rule="evenodd" fill-opacity="1" /><path clip-path="url(#clip550)" d="M1562.4 478.017 Q1562.4 470.967 1564.18 467.126 Q1566.66 461.411 1572.52 461.411 Q1573.76 461.411 1575.05 461.762 Q1576.36 462.09 1578 463.378 Q1579.66 464.667 1580.67 466.775 Q1582.59 470.85 1582.59 478.017 Q1582.59 485.021 1580.81 488.839 Q1578.21 494.413 1572.47 494.413 Q1570.32 494.413 1568.12 493.312 Q1565.94 492.211 1564.56 489.565 Q1562.4 485.606 1562.4 478.017 M1566.38 477.432 Q1566.38 484.669 1566.9 487.55 Q1567.48 490.666 1569.08 492.024 Q1570.69 493.359 1572.47 493.359 Q1574.39 493.359 1575.99 491.93 Q1577.6 490.478 1578.09 487.363 Q1578.63 484.295 1578.61 477.432 Q1578.61 470.756 1578.14 468.086 Q1577.51 464.971 1575.82 463.73 Q1574.16 462.465 1572.47 462.465 Q1571.84 462.465 1571.16 462.652 Q1570.51 462.84 1569.55 463.378 Q1568.59 463.917 1567.84 465.252 Q1567.11 466.587 1566.76 468.602 Q1566.38 471.202 1566.38 477.432 Z" fill="#000000" fill-rule="evenodd" fill-opacity="1" /></svg>
